<svg width="60" height="53" viewBox="0 0 60 53" fill="none" xmlns="http://www.w3.org/2000/svg">
<path d="M29.9997 45.4798C29.8829 45.4797 29.7676 45.4575 29.6615 45.4145C29.5555 45.3714 29.4612 45.3087 29.3851 45.2305C29.3624 45.2076 27.0775 42.857 24.2315 39.4442C18.7294 32.855 12.1699 23.6431 12.1699 17.1821C12.1679 13.8417 13.3688 10.5874 15.5989 7.88982C17.8291 5.19222 20.9729 3.1912 24.5756 2.17618C28.1783 1.16116 32.0531 1.18477 35.6396 2.24359C39.2261 3.30241 42.3383 5.34155 44.5261 8.06607C44.6504 8.22116 44.6999 8.41352 44.6636 8.60083C44.6274 8.78813 44.5083 8.95504 44.3328 9.06483C44.1572 9.17462 43.9394 9.21831 43.7274 9.18627C43.5153 9.15424 43.3264 9.04911 43.2021 8.89401C41.2131 6.41784 38.3839 4.5647 35.1239 3.6026C31.8638 2.6405 28.3418 2.61932 25.0673 3.54212C21.7927 4.46491 18.9353 6.28385 16.9083 8.73587C14.8812 11.1879 13.7897 14.1459 13.7915 17.1821C13.7915 21.9191 17.9624 29.5239 25.5361 38.5969C27.4724 40.9182 29.1418 42.7388 29.9956 43.6527C30.8534 42.7388 32.5221 40.9189 34.4591 38.5976C38.741 33.4688 44.1742 26.119 45.7602 20.2117C45.7817 20.1175 45.8245 20.0281 45.8859 19.9489C45.9474 19.8696 46.0262 19.8021 46.1178 19.7503C46.2094 19.6985 46.3119 19.6635 46.4191 19.6474C46.5263 19.6313 46.6361 19.6344 46.7419 19.6566C46.8478 19.6787 46.9475 19.7195 47.0351 19.7764C47.1227 19.8333 47.1965 19.9051 47.2521 19.9877C47.3076 20.0703 47.3438 20.1619 47.3584 20.2571C47.373 20.3523 47.3658 20.4492 47.3372 20.5418C45.6897 26.6848 40.1348 34.2123 35.7678 39.4442C32.9218 42.857 30.6369 45.2076 30.6142 45.2305C30.5381 45.3087 30.4438 45.3714 30.3378 45.4145C30.2317 45.4575 30.1164 45.4797 29.9997 45.4798Z" fill="#AAC9AF"/>
<path d="M46.8729 15.9394C46.6682 15.94 46.4709 15.8721 46.3205 15.7495C46.1702 15.6269 46.0778 15.4586 46.0621 15.2784C45.9705 14.6308 45.8209 13.9906 45.6145 13.3639C45.5928 13.2991 45.5819 13.2317 45.5821 13.1641C45.58 12.9862 45.6529 12.814 45.7867 12.681C45.9204 12.548 46.1054 12.4637 46.3057 12.4446C46.5059 12.4255 46.707 12.4728 46.8699 12.5775C47.0327 12.6822 47.1457 12.8366 47.1867 13.0108C47.4116 13.7058 47.5743 14.4154 47.6732 15.133C47.6767 15.1618 47.6786 15.1907 47.6788 15.2196C47.6799 15.4095 47.5956 15.5919 47.4445 15.7269C47.2934 15.8618 47.0878 15.9383 46.8729 15.9394Z" fill="#AAC9AF"/>
<path d="M29.9999 28.4431C27.4914 28.4431 25.0391 27.786 22.9533 26.5549C20.8676 25.3238 19.2419 23.574 18.2819 21.5268C17.3219 19.4796 17.0707 17.2269 17.5601 15.0535C18.0495 12.8802 19.2575 10.8839 21.0313 9.31704C22.8051 7.75016 25.0651 6.6831 27.5255 6.2508C29.9859 5.81851 32.5361 6.04038 34.8537 6.88836C37.1713 7.73635 39.1522 9.17237 40.5459 11.0148C41.9396 12.8573 42.6834 15.0234 42.6834 17.2393C42.6796 20.2097 41.342 23.0574 38.9643 25.1578C36.5865 27.2582 33.3626 28.4397 29.9999 28.4431ZM29.9999 7.46868C27.8121 7.46868 25.6733 8.04177 23.8542 9.11549C22.035 10.1892 20.6172 11.7153 19.78 13.5008C18.9428 15.2864 18.7238 17.2511 19.1506 19.1466C19.5775 21.042 20.6312 22.7831 22.1783 24.1496C23.7254 25.5162 25.6965 26.4467 27.8424 26.8237C29.9882 27.2006 32.2124 27.007 34.2337 26.2673C36.255 25.5277 37.9825 24.2751 39.1979 22.6682C40.4133 21.0612 41.062 19.1719 41.0618 17.2393C41.0582 14.6488 39.8915 12.1654 37.8178 10.3337C35.744 8.50206 32.9325 7.47171 29.9999 7.46868Z" fill="#AAC9AF"/>
<path d="M39.6479 24.0648C39.5188 24.0649 39.3916 24.0378 39.2768 23.9857C39.162 23.9336 39.063 23.8581 38.9879 23.7654C37.9839 22.5091 36.6551 21.4827 35.1118 20.7712C33.5684 20.0598 31.8552 19.684 30.1144 19.6751C30.1057 19.6758 30.097 19.6758 30.0884 19.6751H29.8808C28.14 19.684 26.4268 20.0598 24.8834 20.7712C23.3401 21.4827 22.0113 22.5091 21.0073 23.7654C20.8815 23.9181 20.6924 24.0207 20.4814 24.0509C20.2703 24.0811 20.0543 24.0364 19.8803 23.9265C19.7064 23.8167 19.5886 23.6506 19.5526 23.4644C19.5166 23.2783 19.5653 23.0871 19.6881 22.9325C20.8491 21.5005 22.3752 20.3298 24.143 19.5151C25.9108 18.7004 27.8708 18.2645 29.8646 18.2427H29.8898H30.133C32.1268 18.2645 34.0868 18.7004 35.8546 19.5151C37.6225 20.3298 39.1485 21.5005 40.3095 22.9325C40.3714 23.009 40.4156 23.0956 40.4395 23.1872C40.4635 23.2789 40.4669 23.3738 40.4493 23.4666C40.4318 23.5594 40.3937 23.6482 40.3373 23.728C40.2809 23.8077 40.2073 23.8769 40.1206 23.9316C39.9829 24.0191 39.8174 24.0657 39.6479 24.0648Z" fill="#AAC9AF"/>
<path d="M29.9991 19.6831C29.0101 19.6833 28.0433 19.4243 27.2209 18.9391C26.3985 18.4538 25.7575 17.7641 25.3789 16.957C25.0003 16.1499 24.9012 15.2618 25.094 14.405C25.2869 13.5481 25.763 12.761 26.4623 12.1432C27.1616 11.5255 28.0525 11.1047 29.0225 10.9342C29.9925 10.7637 30.9979 10.8512 31.9116 11.1855C32.8254 11.5197 33.6064 12.0859 34.1558 12.8122C34.7053 13.5386 34.9986 14.3926 34.9986 15.2662C34.9973 16.4372 34.4702 17.5599 33.5329 18.3879C32.5956 19.216 31.3247 19.6818 29.9991 19.6831ZM29.9991 12.2825C29.3308 12.2823 28.6775 12.4572 28.1217 12.7851C27.566 13.113 27.1328 13.5791 26.877 14.1245C26.6212 14.6699 26.5542 15.27 26.6845 15.849C26.8149 16.428 27.1367 16.9598 27.6093 17.3773C28.0818 17.7947 28.6839 18.079 29.3394 18.1941C29.9948 18.3092 30.6742 18.2501 31.2916 18.0241C31.909 17.7981 32.4367 17.4155 32.8079 16.9246C33.1791 16.4337 33.3771 15.8565 33.377 15.2662C33.3759 14.4752 33.0197 13.7168 32.3864 13.1574C31.7532 12.5981 30.8947 12.2834 29.9991 12.2825Z" fill="#AAC9AF"/>
<path d="M29.9992 51.5676C20.8492 51.5676 13.6816 48.5788 13.6816 44.7635C13.6816 41.7662 18.0292 39.2329 24.7573 38.3104C24.8634 38.2942 24.972 38.2968 25.077 38.3181C25.1819 38.3394 25.281 38.3789 25.3684 38.4344C25.4558 38.4898 25.5299 38.5601 25.5863 38.6411C25.6426 38.7221 25.6802 38.8122 25.6967 38.9062C25.7132 39.0001 25.7084 39.0961 25.6825 39.1884C25.6566 39.2807 25.6102 39.3675 25.5459 39.4438C25.4817 39.5201 25.4008 39.5843 25.3082 39.6327C25.2155 39.6811 25.1129 39.7127 25.0062 39.7256C19.2965 40.5099 15.3033 42.5812 15.3033 44.7635C15.3033 47.3577 21.2084 50.1351 29.9992 50.1351C38.79 50.1351 44.6952 47.3577 44.6952 44.7635C44.6952 42.5812 40.7052 40.5099 34.9922 39.7256C34.8855 39.7127 34.7829 39.6811 34.6902 39.6327C34.5976 39.5843 34.5168 39.5201 34.4525 39.4438C34.3882 39.3675 34.3418 39.2807 34.3159 39.1884C34.29 39.0961 34.2852 39.0001 34.3017 38.9062C34.3182 38.8122 34.3558 38.7221 34.4121 38.6411C34.4685 38.5601 34.5426 38.4898 34.63 38.4344C34.7175 38.3789 34.8165 38.3394 34.9214 38.3181C35.0264 38.2968 35.135 38.2942 35.2411 38.3104C41.9708 39.2329 46.3168 41.7662 46.3168 44.7635C46.3168 48.5788 39.1492 51.5676 29.9992 51.5676Z" fill="#AAC9AF"/>
</svg>
