<svg width="58" height="58" viewBox="0 0 58 58" fill="none" xmlns="http://www.w3.org/2000/svg">
<path d="M57.1504 35.1847C57.6196 35.1847 58 34.8044 58 34.3351V16.2762C58 13.9338 56.0944 12.0282 53.752 12.0282H44.8408V4.24805C44.8408 1.90562 42.9352 0 40.5928 0H17.4072C15.0648 0 13.1592 1.90562 13.1592 4.24805V12.0282H4.24805C1.90562 12.0282 0 13.9338 0 16.2762V45.1222C0 47.4646 1.90562 49.3702 4.24805 49.3702H24.8394V52.9023H23.7661C21.6111 52.9023 19.8579 54.6556 19.8579 56.8105C19.8579 57.4664 20.3914 58 21.0473 58H36.9526C37.6085 58 38.142 57.4664 38.142 56.8105C38.142 54.6556 36.3888 52.9023 34.2338 52.9023H33.1605V49.3702H53.752C56.0944 49.3702 58 47.4646 58 45.1222V38.2998C58 37.8305 57.6196 37.4502 57.1504 37.4502C56.6812 37.4502 56.3008 37.8305 56.3008 38.2998V45.1222C56.3008 46.5276 55.1574 47.671 53.752 47.671H32.3197C32.3168 47.671 32.3139 47.6706 32.311 47.6706C32.308 47.6706 32.3052 47.671 32.3023 47.671H25.6979C25.6949 47.671 25.6921 47.6706 25.6891 47.6706C25.6862 47.6706 25.6834 47.671 25.6804 47.671H4.24805C2.84257 47.671 1.69922 46.5276 1.69922 45.1222V16.2762C1.69922 14.8709 2.84257 13.7274 4.24805 13.7274H13.1592V15.4266H4.58789C3.93199 15.4266 3.39844 15.9602 3.39844 16.6161V45.1222C3.39844 45.5915 3.77884 45.9718 4.24805 45.9718H53.4121C54.068 45.9718 54.6016 45.4382 54.6016 44.7823V16.6161C54.6016 15.9602 54.068 15.4266 53.4121 15.4266H44.8408V13.7274H53.752C55.1574 13.7274 56.3008 14.8709 56.3008 16.2762V34.3351C56.3008 34.8043 56.6812 35.1847 57.1504 35.1847ZM26.5386 49.3702H31.4614V52.9023H26.5386V49.3702ZM34.2339 54.6016C35.2766 54.6016 36.1528 55.3276 36.3836 56.3008H21.6164C21.8472 55.3276 22.7234 54.6016 23.7661 54.6016H34.2339ZM13.1592 44.2726H5.09766V17.1259H13.1592V44.2726ZM43.1416 44.2726H14.8584V4.24805C14.8584 2.84268 16.0018 1.69922 17.4072 1.69922H40.5928C41.9982 1.69922 43.1416 2.84268 43.1416 4.24805V44.2726ZM52.9023 17.1259V44.2726H44.8408V17.1259H52.9023ZM38.7826 30.6992H19.2174C18.7482 30.6992 18.3678 31.0795 18.3678 31.5488C18.3678 32.0182 18.7482 32.3984 19.2174 32.3984H38.7826C39.2518 32.3984 39.6322 32.0182 39.6322 31.5488C39.6322 31.0795 39.2518 30.6992 38.7826 30.6992ZM29 5.09766C26.6368 5.09766 24.388 5.84577 22.4965 7.26133C22.1209 7.54238 22.0442 8.07503 22.3254 8.45055C22.6065 8.8262 23.1389 8.903 23.5147 8.62184C25.1099 7.42785 27.0067 6.79688 29 6.79688C34.0596 6.79688 38.1758 10.9132 38.1758 15.9727C38.1758 21.0321 34.0596 25.1484 29 25.1484C23.9404 25.1484 19.8242 21.0321 19.8242 15.9727C19.8242 14.3328 20.264 12.7226 21.096 11.3161C21.3349 10.9124 21.2013 10.3913 20.7974 10.1524C20.3936 9.91358 19.8725 10.0471 19.6336 10.4511C18.6467 12.1192 18.125 14.0286 18.125 15.9727C18.125 21.9692 23.0035 26.8477 29 26.8477C34.9965 26.8477 39.875 21.9692 39.875 15.9727C39.875 9.97611 34.9965 5.09766 29 5.09766ZM25.0855 20.3459C26.2694 21.5408 28.3005 21.5493 29.4907 20.3455L34.7967 15.0394C35.8152 14.0293 35.7604 12.308 34.7082 11.3506C33.7009 10.4339 32.1414 10.4859 31.1582 11.4689L27.288 15.3392L26.8077 14.8589C25.8298 13.8712 24.1836 13.8781 23.2029 14.8588C22.2092 15.8525 22.2091 17.4694 23.2029 18.4633L25.0855 20.3459ZM24.4046 16.0603C24.7316 15.7334 25.2808 15.7316 25.6062 16.0602L26.4469 16.901C26.9006 17.3594 27.6739 17.3613 28.1291 16.9012L32.3598 12.6705C32.6946 12.3356 33.2352 12.3073 33.5648 12.6072C33.9181 12.9287 33.9359 13.501 33.5954 13.8378L28.2894 19.1439C28.0226 19.4105 27.667 19.5574 27.2881 19.5574C26.9092 19.5574 26.5536 19.4106 26.287 19.1442L24.4047 17.2618C24.0734 16.9306 24.0734 16.3916 24.4046 16.0603ZM38.7826 35.7969H19.2174C18.7482 35.7969 18.3678 36.1772 18.3678 36.6465C18.3678 37.1158 18.7482 37.4961 19.2174 37.4961H38.7826C39.2518 37.4961 39.6322 37.1158 39.6322 36.6465C39.6322 36.1772 39.2518 35.7969 38.7826 35.7969Z" fill="#223C42"/>
</svg>
