<svg width="51" height="50" viewBox="0 0 51 50" fill="none" xmlns="http://www.w3.org/2000/svg">
<path d="M22.7109 11.6211C23.2611 11.6211 23.707 11.1838 23.707 10.6445V7.51953C23.707 4.82715 21.4728 2.63672 18.7266 2.63672H4.98047C2.23424 2.63672 0 4.82715 0 7.51953V19.2371C0 21.9295 2.23424 24.1199 4.98047 24.1199H11.4244C11.1977 31.4154 8.37426 35.208 2.81227 35.7041C2.29918 35.7499 1.90642 36.1716 1.90642 36.6767V46.3867C1.90642 46.6553 2.01918 46.9119 2.2182 47.0964C2.40367 47.2682 2.64861 47.3633 2.90242 47.3633C2.92105 47.3633 2.93977 47.3628 2.9584 47.3617C9.82228 46.9832 15.062 44.6673 18.5322 40.4782C21.966 36.3331 23.707 30.2763 23.707 22.4758V18.9778C23.707 18.4386 23.2611 18.0013 22.7109 18.0013C22.1608 18.0013 21.7148 18.4386 21.7148 18.9778V22.4758C21.7148 36.7965 15.8842 44.2854 3.89871 45.3368V37.5403C6.92793 37.0784 9.27104 35.696 10.8721 33.423C12.5703 31.0118 13.4314 27.5533 13.4314 23.1434C13.4314 22.6041 12.9855 22.1668 12.4353 22.1668H4.98047C3.33273 22.1668 1.99219 20.8525 1.99219 19.2371V7.51953C1.99219 5.9041 3.33273 4.58984 4.98047 4.58984H18.7266C20.3743 4.58984 21.7148 5.9041 21.7148 7.51953V10.6445C21.7148 11.1838 22.1608 11.6211 22.7109 11.6211Z" fill="#223C42"/>
<path d="M46.0195 2.63672H32.2734C29.5272 2.63672 27.293 4.82715 27.293 7.51953V19.2371C27.293 21.9295 29.5272 24.1199 32.2734 24.1199H38.7174C38.4907 31.4154 35.6672 35.208 30.1052 35.7041C29.5923 35.7499 29.1994 36.1716 29.1994 36.6767V46.3867C29.1994 46.6553 29.3122 46.9119 29.5112 47.0964C29.6966 47.2683 29.9416 47.3633 30.1954 47.3633C30.214 47.3633 30.2327 47.3628 30.2514 47.3617C37.1153 46.9832 42.355 44.6673 45.8252 40.4782C49.2589 36.3332 51 30.2763 51 22.4758V7.51953C51 4.82715 48.7658 2.63672 46.0195 2.63672ZM49.0078 22.4758C49.0078 36.7965 43.1772 44.2854 31.1916 45.3368V37.5403C34.2209 37.0784 36.564 35.696 38.1649 33.423C39.8632 31.0119 40.7243 27.5534 40.7243 23.1434C40.7243 22.6041 40.2783 22.1668 39.7282 22.1668H32.2734C30.6257 22.1668 29.2852 20.8525 29.2852 19.2371V7.51953C29.2852 5.9041 30.6257 4.58984 32.2734 4.58984H44.2266V11.8197C44.2266 12.359 44.6725 12.7963 45.2227 12.7963C45.7728 12.7963 46.2188 12.359 46.2188 11.8197V4.59707C47.7739 4.69805 49.0078 5.96982 49.0078 7.51953V22.4758Z" fill="#223C42"/>
<path d="M45.2227 14.2335C44.6725 14.2335 44.2266 14.6756 44.2266 15.2149C44.2266 15.7541 44.6725 16.1914 45.2227 16.1914C45.7727 16.1914 46.2188 15.7541 46.2188 15.2149V15.2052C46.2188 14.6659 45.7728 14.2335 45.2227 14.2335Z" fill="#223C42"/>
<path d="M22.7109 13.8346C22.1608 13.8346 21.7148 14.2719 21.7148 14.8112V14.8316C21.7148 15.3708 22.1608 15.8081 22.7109 15.8081C23.2611 15.8081 23.707 15.3708 23.707 14.8316V14.8112C23.707 14.2719 23.2611 13.8346 22.7109 13.8346Z" fill="#223C42"/>
</svg>
