<svg width="31" height="33" viewBox="0 0 31 33" fill="none" xmlns="http://www.w3.org/2000/svg">
<path d="M29.5753 10.0583H24.7218C24.471 10.0583 24.2677 10.2675 24.2677 10.5255C24.2677 10.7835 24.471 10.9927 24.7218 10.9927H29.5753C29.8602 10.9927 30.0919 11.2312 30.0919 11.5242V21.5114C30.0919 21.8045 29.8601 22.0429 29.5753 22.0429H21.3243C21.0735 22.0429 20.8702 22.2521 20.8702 22.5101V30.9992C20.8702 31.2923 20.6384 31.5307 20.3536 31.5307H15.9542V16.9928C17.7893 16.9561 19.634 16.1082 21.0803 14.6202C22.6527 13.0023 23.4903 10.9001 23.3781 8.85266C23.3651 8.61532 23.1809 8.42588 22.9503 8.41249C20.9604 8.29786 18.917 9.15871 17.3445 10.7766C15.7765 12.3899 14.9395 14.4846 15.046 16.5265V21.8239L10.025 16.658C9.84769 16.4755 9.56015 16.4755 9.38286 16.658C9.20552 16.8404 9.20552 17.1362 9.38286 17.3186L11.8551 19.8624C10.7152 19.6442 9.58521 19.025 8.68427 18.098C7.58976 16.972 6.93676 15.4985 6.88748 14.0809C8.26529 14.1317 9.69753 14.8036 10.7919 15.9295C11.1826 16.3316 11.5195 16.7771 11.7931 17.2539C11.9206 17.4761 12.1991 17.5499 12.415 17.4187C12.6309 17.2875 12.7027 17.001 12.5752 16.7789C12.2627 16.2345 11.8789 15.7264 11.4341 15.2689C10.0262 13.8204 8.19669 13.0493 6.41267 13.1523C6.18198 13.1657 5.99786 13.3552 5.98484 13.5925C5.88433 15.4273 6.63415 17.3104 8.04205 18.7588C9.36615 20.1212 11.0638 20.8846 12.7446 20.8846C12.7788 20.8846 12.813 20.8838 12.8471 20.8831L14.462 22.5446C14.802 22.8944 15.0054 23.3468 15.046 23.8339V31.5307H10.6465C10.3617 31.5307 10.13 31.2923 10.13 30.9992V22.5101C10.13 22.2521 9.92664 22.0429 9.67585 22.0429H1.42479C1.13992 22.0429 0.908207 21.8044 0.908207 21.5114V11.5242C0.908207 11.2311 1.13998 10.9927 1.42479 10.9927H9.67579C9.92658 10.9927 10.1299 10.7835 10.1299 10.5255V2.03635C10.1299 1.74325 10.3617 1.50485 10.6465 1.50485H20.3535C20.6384 1.50485 20.8701 1.74331 20.8701 2.03635V7.02974C20.8701 7.28776 21.0734 7.49695 21.3242 7.49695C21.575 7.49695 21.7783 7.28776 21.7783 7.02974V2.03635C21.7784 1.22808 21.1392 0.570435 20.3536 0.570435H10.6465C9.86088 0.570435 9.22175 1.22808 9.22175 2.03635V10.0582H1.42479C0.639196 10.0583 0 10.7159 0 11.5242V21.5114C0 22.3197 0.639196 22.9773 1.42479 22.9773H9.22169V30.9992C9.22169 31.8075 9.86088 32.4651 10.6465 32.4651H20.3535C21.1392 32.4651 21.7783 31.8074 21.7783 30.9992V22.9773H29.5752C30.3609 22.9773 31 22.3196 31 21.5114V11.5242C31.0001 10.7159 30.3609 10.0583 29.5753 10.0583ZM17.9867 11.4373C19.244 10.1438 20.8951 9.37861 22.4778 9.33868C22.439 10.9671 21.6953 12.6659 20.438 13.9594C19.3667 15.0616 18.0096 15.7798 16.6523 15.993L19.2186 13.3526C19.396 13.1702 19.396 12.8743 19.2186 12.6919C19.0413 12.5095 18.7537 12.5095 18.5765 12.6919L16.0102 15.3323C16.2174 13.9359 16.9154 12.5395 17.9867 11.4373Z" fill="white"/>
</svg>
