<svg width="1920" height="183" viewBox="0 0 1920 183" fill="none" xmlns="http://www.w3.org/2000/svg">
<path d="M302.736 70.4093C164.228 91.7423 43.2004 57.8169 0 38.1876V183H1921V83.7424C1819.42 68.5575 1697.83 19.6694 1509.68 9.6696C1321.53 -0.330234 1082.85 105.594 911.712 66.3353C740.578 27.0767 475.872 43.7431 302.736 70.4093Z" fill="url(#paint0_linear_819:643)"/>
<path d="M1617.26 64.5857C1755.77 87.0221 1876.8 51.3419 1920 30.6973V183H-0.999878V78.6084C100.579 62.638 222.174 11.2213 410.321 0.704232C598.468 -9.81283 837.155 101.59 1008.29 60.3009C1179.42 19.0117 1444.13 36.5401 1617.26 64.5857Z" fill="white" fill-opacity="0.6"/>
<defs>
<linearGradient id="paint0_linear_819:643" x1="960.5" y1="9" x2="960.5" y2="183" gradientUnits="userSpaceOnUse">
<stop stop-color="white" stop-opacity="0.5"/>
<stop offset="0.665058" stop-color="white"/>
</linearGradient>
</defs>
</svg>
