<svg width="94" height="94" viewBox="0 0 94 94" fill="none" xmlns="http://www.w3.org/2000/svg">
<path d="M2.30807 58.5793C2.82357 58.9364 3.36743 59.2508 3.93421 59.5192C4.61255 59.8655 5.74678 60.4451 5.82667 60.8524C5.92638 61.3873 5.8625 61.9398 5.64338 62.4378C5.40996 62.9391 5.164 63.37 4.95407 63.7428C4.37913 64.7548 3.42037 66.4515 4.86791 67.6358C5.2063 67.9492 5.79064 68.4019 6.32485 68.8108C5.93229 69.4963 5.75438 70.2837 5.81414 71.0714C5.89643 71.6879 6.22906 72.2432 6.73374 72.6067C7.08622 72.8573 7.46378 73.0767 7.83036 73.2881C8.75153 73.813 9.11185 74.0574 9.24031 74.5414C9.32457 75.1788 9.2657 75.8269 9.06798 76.4386C8.97555 76.8459 8.88625 77.2517 8.82829 77.6684C8.67301 79.0972 8.85435 80.5426 9.3578 81.8888C10.0609 84.3835 12.3168 86.1217 14.9083 86.1656C15.3384 86.164 15.7672 86.1189 16.1882 86.0309C20.6637 84.9703 25.0738 83.6505 29.3963 82.0784C32.9243 84.1494 35.1551 90.4472 35.7363 92.8112C35.9105 93.5094 36.5379 93.9992 37.2575 93.9987L76.5793 93.889C77.0776 93.888 77.5458 93.6501 77.8402 93.248C78.1346 92.8459 78.2202 92.3278 78.0707 91.8524C77.6833 90.791 77.1491 89.7891 76.4837 88.8759C76.1074 88.3355 75.7683 87.7703 75.4686 87.1839C74.7602 85.7471 74.1687 84.2556 73.6999 82.7238C72.8063 79.6961 72.186 76.5943 71.8466 73.4558C71.2967 68.7688 72.0073 64.0201 73.9051 59.6994C75.0632 57.3032 76.4908 55.0468 78.16 52.974C79.1 51.705 80.076 50.3906 80.9517 49.0104C82.4574 46.6714 83.5491 44.0906 84.1789 41.3811C84.3592 40.5447 83.835 39.7184 83.0016 39.525C82.1681 39.3316 81.3337 39.8427 81.1272 40.673C80.5764 43.0377 79.6225 45.29 78.3073 47.331C77.4942 48.6172 76.5542 49.883 75.6441 51.1081C73.8313 53.3701 72.2843 55.8327 71.0335 58.4477C68.9119 63.2798 68.1191 68.5907 68.7369 73.8318C69.0981 77.1603 69.7593 80.4495 70.7124 83.6591C71.227 85.3444 71.8772 86.9853 72.6565 88.5657C73.0137 89.2718 73.4194 89.9523 73.8707 90.6023L73.9756 90.7589L38.4418 90.8655C37.4006 87.1494 35.5125 83.7251 32.9258 80.8611L34.3358 80.3708C35.3885 80.0026 36.1828 79.7253 36.5933 79.5875C43.3015 77.449 46.6571 74.3942 46.5647 70.5012C46.5604 70.0853 46.3879 69.689 46.0866 69.4024C45.7852 69.1158 45.3807 68.9634 44.9652 68.98C44.1005 69.0005 43.4161 69.7179 43.4362 70.5826C43.4738 72.1853 42.1531 74.532 35.6408 76.6062C35.2146 76.7425 34.3875 77.0292 33.3049 77.4099C32.141 77.8156 30.6652 78.3326 29.0359 78.8856H29.025C24.6192 80.5011 20.124 81.8611 15.5616 82.9588C14.1024 83.2331 12.6839 82.3167 12.3344 80.8736C11.9974 79.9894 11.8651 79.0403 11.9474 78.0976C11.9928 77.7843 12.0665 77.4553 12.1385 77.1357C12.4719 76.0422 12.5258 74.8825 12.2952 73.7628C11.8402 72.3282 10.7851 71.1616 9.40323 70.5654L9.06641 70.3727C9.23528 70.0297 9.43785 69.7043 9.67112 69.4014C9.93361 69.068 10.0496 68.6424 9.99263 68.2219C9.93564 67.8014 9.71052 67.4221 9.36877 67.1705C8.99435 66.8948 8.11548 66.2306 7.45751 65.7073C7.53271 65.571 7.61417 65.4206 7.69407 65.2859C7.94002 64.8535 8.22201 64.346 8.4946 63.771C8.99108 62.6736 9.13662 61.4497 8.91132 60.2665C8.5369 58.3553 6.70554 57.4184 5.36922 56.7354C4.91901 56.5212 4.48725 56.2702 4.07834 55.985C3.74262 55.7602 3.428 55.5053 3.13838 55.2236C3.13838 54.9855 3.39373 54.4105 4.58592 52.9583C7.38924 49.3464 9.79238 45.4409 11.7531 41.3106C12.1212 40.6631 12.3286 39.9367 12.3579 39.1925C12.1938 37.6162 11.3557 36.188 10.0596 35.276C9.42517 34.6932 8.82516 34.1449 8.75779 33.6828C8.77215 33.2989 8.85823 32.9211 9.01158 32.5689C9.26694 31.8984 9.56303 31.2404 9.85755 30.5809C10.5182 29.2202 11.0429 27.7976 11.4242 26.3338C11.7831 24.5781 12.2541 22.8471 12.8341 21.1515C14.0689 17.7429 15.981 14.6195 18.4551 11.9696C21.4504 8.79723 26.1659 6.55385 32.495 5.29744C37.3362 4.23456 42.2486 3.52666 47.1929 3.17938C48.8565 3.09365 50.5241 3.12926 52.1826 3.28591C52.7411 3.33796 53.285 3.08807 53.6094 2.63035C53.9338 2.17264 53.9893 1.57664 53.7551 1.06688C53.5209 0.557112 53.0325 0.211018 52.4739 0.158967C50.6637 -0.00690322 48.8438 -0.0430274 47.0284 0.050871C41.9313 0.40454 36.867 1.1313 31.8762 2.22532C24.8124 3.63527 19.6786 6.11207 16.1757 9.81553C13.4096 12.7725 11.2714 16.2595 9.89045 20.0658C9.25558 21.9181 8.74015 23.8093 8.34734 25.7275C8.01252 26.9578 7.56248 28.1537 7.00319 29.2994C6.68987 30.0122 6.36715 30.725 6.08516 31.466C5.72862 32.2943 5.58225 33.1979 5.65905 34.0964C5.98311 35.4947 6.7959 36.7314 7.95099 37.5836C8.71863 38.287 9.22464 38.7821 9.23091 39.2145C9.17389 39.4523 9.08426 39.6811 8.96458 39.8944C7.08895 43.8447 4.79035 47.5799 2.10912 51.0345C0.974893 52.4178 -0.215728 54.0299 0.0333625 55.6435C0.366963 56.8876 1.18663 57.9455 2.30807 58.5793Z" fill="#223C42"/>
<path d="M18.7057 23.3276C19.6491 20.7121 21.1113 18.3142 23.0045 16.2779C25.0928 14.0674 28.7038 12.4397 33.7389 11.4386C34.5876 11.2703 35.1393 10.4458 34.971 9.59707C34.8027 8.74829 33.9782 8.19665 33.1295 8.36493C27.4442 9.49602 23.2724 11.4323 20.7282 14.1206C18.5421 16.467 16.8538 19.2317 15.7652 22.2482C15.2378 23.8132 14.8083 25.4096 14.479 27.0279L17.5386 27.7063C17.8389 26.2245 18.2286 24.7622 18.7057 23.3276Z" fill="#223C42"/>
<path d="M51.4807 8.77521L50.5407 13.4625C49.6346 13.7601 48.7526 14.1267 47.9026 14.5591L43.9249 11.8959C42.6821 11.082 41.0386 11.2527 39.9896 12.3048L37.3891 14.9038C36.3163 15.9569 36.1428 17.6235 36.9755 18.8751L39.6262 22.8339C39.1937 23.684 38.8271 24.566 38.5295 25.4721L33.8485 26.4121C32.3859 26.7075 31.3345 27.9935 31.3357 29.4857V33.1829C31.3346 34.6726 32.3827 35.9571 33.8423 36.2551L38.5295 37.195C38.8271 38.1011 39.1937 38.9831 39.6262 39.8332L36.9629 43.8108C36.149 45.0536 36.3198 46.6972 37.3718 47.7461L39.9724 50.3467C41.0274 51.4145 42.6903 51.5871 43.9422 50.7587L47.901 48.108C48.751 48.5404 49.633 48.9071 50.5392 49.2046L51.4791 53.8856C51.7739 55.3489 53.0601 56.4011 54.5528 56.4H58.25C59.7397 56.4011 61.0242 55.3531 61.3221 53.8935L62.2621 49.2062C63.1682 48.9086 64.0502 48.542 64.9002 48.1096L68.8778 50.7728C70.1207 51.5867 71.7642 51.4159 72.8132 50.3639L75.4122 47.7649C76.4849 46.7118 76.6584 45.0451 75.8257 43.7936L73.175 39.8347C73.6075 38.9847 73.9741 38.1027 74.2717 37.1966L78.9527 36.2566C79.8825 36.0686 80.6763 35.4679 81.1099 34.6242L83.4708 36.2065C83.9263 36.4935 84.4536 36.646 84.992 36.6467C85.743 36.6469 86.463 36.3475 86.9925 35.8148L89.0761 33.7313C90.0236 32.7789 90.1758 31.2935 89.4411 30.1688L87.4202 27.1452C87.7133 26.5561 87.9666 25.9479 88.1784 25.3248L91.7237 24.6183C93.0501 24.3577 94.005 23.1925 93.9999 21.8407V18.8955C94.0047 17.5488 93.0565 16.3866 91.7362 16.121L88.1753 15.4114C87.9652 14.7881 87.7129 14.1799 87.4202 13.591L89.4725 10.5314C90.1836 9.4108 90.0208 7.94661 89.0808 7.00964L86.9972 4.92606C86.0451 3.97795 84.5593 3.82571 83.4348 4.56104L80.4112 6.58196C79.822 6.28883 79.2139 6.03551 78.5908 5.82372L77.8827 2.27849C77.6222 0.952638 76.4579 -0.00211014 75.1067 0.00221505H72.1615C70.8147 -0.00253737 69.6526 0.94567 69.387 2.26596L68.6773 5.82686C68.054 6.03851 67.4458 6.29237 66.8569 6.58666L63.7973 4.53441C62.6765 3.82449 61.2131 3.98723 60.2756 4.92606L58.8657 6.336C58.6631 6.29376 58.4569 6.2712 58.25 6.26864H54.5528C53.0631 6.26759 51.7786 7.3156 51.4807 8.77521ZM75.431 14.9163L74.6994 14.1847C77.4148 14.5482 79.5746 16.642 80.0221 19.3448C80.4696 22.0477 79.1 24.7259 76.6466 25.9452L74.2685 25.4752C73.971 24.5691 73.6044 23.6871 73.1719 22.8371L75.8351 18.8595C76.652 17.617 76.4831 15.9716 75.431 14.921V14.9163ZM62.3185 7.30887L65.8997 9.71517C66.4019 10.0519 67.0531 10.0696 67.5729 9.76061C68.4697 9.23281 69.4341 8.82962 70.4398 8.56215C71.0144 8.40697 71.4514 7.93958 71.5677 7.35586L72.409 3.13543H74.8591L75.7004 7.36526C75.8167 7.94898 76.2538 8.41637 76.8284 8.57155C77.834 8.83902 78.7985 9.24221 79.6953 9.77001C80.2168 10.0762 80.868 10.0549 81.3684 9.71517L84.9497 7.312L86.6886 9.05093L84.287 12.6338C83.9502 13.136 83.9325 13.7872 84.2416 14.3069C84.7693 15.2037 85.1725 16.1682 85.44 17.1738C85.5952 17.7484 86.0626 18.1854 86.6463 18.3017L90.8761 19.143V21.5932L86.6541 22.4345C86.0704 22.5508 85.603 22.9878 85.4478 23.5624C85.1804 24.568 84.7772 25.5325 84.2494 26.4293C83.9404 26.949 83.958 27.6002 84.2948 28.1024L86.698 31.6837L84.9591 33.4226L81.4671 31.0868V29.4857C81.4673 28.5685 81.0667 27.697 80.3705 27.0998C83.1285 24.4428 83.9939 20.3758 82.5564 16.8261C81.1189 13.2765 77.6674 10.9576 73.8377 10.9685C72.8905 10.9744 71.9501 11.1288 71.0507 11.4259C70.2853 11.3144 69.5054 11.486 68.8575 11.9084L64.9018 14.5591C64.0517 14.1267 63.1698 13.7601 62.2636 13.4625L61.3237 8.78148C61.2959 8.65596 61.2598 8.53244 61.2156 8.41176L62.3185 7.30887ZM53.4248 15.0056L54.5528 9.40185H58.25L59.3764 15.0103C59.4935 15.5924 59.9296 16.0583 60.5028 16.2135C61.7971 16.5624 63.0405 17.0785 64.2015 17.7487C64.7189 18.0488 65.362 18.0282 65.859 17.6955L70.5995 14.5247L73.2252 17.1362L70.045 21.8814C69.7123 22.3785 69.6916 23.0215 69.9917 23.5389C70.6619 24.6999 71.178 25.9433 71.527 27.2377C71.6822 27.8108 72.148 28.2469 72.7301 28.3641L78.3339 29.4842V33.1829L72.7254 34.3093C72.1433 34.4264 71.6775 34.8626 71.5223 35.4357C71.1733 36.7301 70.6572 37.9735 69.987 39.1345C69.6869 39.6518 69.7076 40.2949 70.0403 40.7919L73.2111 45.5325L70.5995 48.1581L65.8543 44.9779C65.3573 44.6452 64.7142 44.6246 64.1968 44.9246C63.0358 45.5949 61.7924 46.111 60.4981 46.4599C59.9249 46.6151 59.4888 47.081 59.3717 47.6631L58.25 53.2668H54.5528L53.4264 47.6584C53.3093 47.0763 52.8732 46.6104 52.3 46.4552C51.0057 46.1063 49.7623 45.5902 48.6013 44.92C48.0839 44.6199 47.4408 44.6405 46.9438 44.9732L42.2032 48.144L39.5776 45.5325L42.7578 40.7872C43.0905 40.2902 43.1112 39.6471 42.8111 39.1298C42.1409 37.9688 41.6247 36.7254 41.2758 35.431C41.1206 34.8579 40.6548 34.4217 40.0727 34.3046L34.4689 33.1829V29.4857L40.0774 28.3594C40.6595 28.2422 41.1253 27.8061 41.2805 27.233C41.6294 25.9386 42.1455 24.6952 42.8158 23.5342C43.1159 23.0168 43.0952 22.3738 42.7625 21.8767L39.5917 17.1362L42.2032 14.5106L46.9485 17.6908C47.4455 18.0235 48.0886 18.0441 48.606 17.744C49.767 17.0738 51.0103 16.5577 52.3047 16.2088C52.8754 16.0515 53.3088 15.5861 53.4248 15.0056Z" fill="#223C42"/>
<path d="M56.4013 42.3007C62.4578 42.3007 67.3675 37.3909 67.3675 31.3344C67.3675 25.2779 62.4578 20.3682 56.4013 20.3682C50.3448 20.3682 45.4351 25.2779 45.4351 31.3344C45.442 37.388 50.3477 42.2937 56.4013 42.3007ZM56.4013 23.5014C60.7274 23.5014 64.2343 27.0083 64.2343 31.3344C64.2343 35.6605 60.7274 39.1674 56.4013 39.1674C52.0752 39.1674 48.5683 35.6605 48.5683 31.3344C48.5735 27.0105 52.0774 23.5066 56.4013 23.5014Z" fill="#223C42"/>
<path d="M56.4016 32.901C57.2668 32.901 57.9682 32.1996 57.9682 31.3344C57.9682 30.4692 57.2668 29.7678 56.4016 29.7678C55.5364 29.7678 54.835 30.4692 54.835 31.3344C54.835 32.1996 55.5364 32.901 56.4016 32.901Z" fill="#223C42"/>
<path d="M14.1032 34.4677C14.9684 34.4677 15.6698 33.7663 15.6698 32.9011C15.6698 32.0359 14.9684 31.3345 14.1032 31.3345C13.238 31.3345 12.5366 32.0359 12.5366 32.9011C12.5366 33.7663 13.238 34.4677 14.1032 34.4677Z" fill="#223C42"/>
</svg>
