<svg width="83" height="83" viewBox="0 0 83 83" fill="none" xmlns="http://www.w3.org/2000/svg">
<g clip-path="url(#clip0_108:393)">
<path d="M64.2664 80.083L55.5602 71.3757C55.2561 71.0717 54.8438 70.9008 54.4139 70.9008C54.4131 70.9008 54.4123 70.9008 54.4116 70.9008L49.7405 70.9075C49.7303 70.9075 49.72 70.9075 49.7098 70.9075C47.1313 70.9075 44.5483 70.4333 42.1307 69.5286L44.9338 67.6489C46.0812 66.8795 46.8526 65.708 47.1063 64.35C47.3599 62.9918 47.0632 61.6207 46.2708 60.4889C45.2855 59.0818 43.6988 58.3179 42.0832 58.3179C42.057 58.3179 42.0307 58.3181 42.0043 58.3186L48.4609 51.8619C50.4197 49.903 50.4197 46.7156 48.4609 44.7566C47.9843 44.28 47.4288 43.9112 46.8238 43.6619C47.2722 42.8997 47.5119 42.029 47.5119 41.1213C47.5119 39.7794 46.9893 38.5175 46.0405 37.5686C45.0915 36.6196 43.8298 36.0969 42.4877 36.0969C41.58 36.0969 40.7095 36.3368 39.9471 36.7852C39.6978 36.1802 39.329 35.6247 38.8524 35.1479C37.9034 34.1989 36.6417 33.6763 35.2996 33.6763C33.9575 33.6763 32.6958 34.1989 31.7468 35.1479L29.4285 37.4663C29.1819 36.923 28.8381 36.4224 28.4036 35.9878C27.4546 35.0388 26.1929 34.5164 24.8508 34.5164C23.5087 34.5164 22.247 35.039 21.298 35.9878L20.2704 37.0154L16.0927 32.8612C14.8792 31.6477 14.8792 29.673 16.0927 28.4595C17.2296 27.3226 19.0342 27.2509 20.2554 28.2439L24.3013 32.2899C24.6179 32.6065 25.0327 32.7648 25.4476 32.7648C25.8624 32.7648 26.2774 32.6064 26.5938 32.2899C27.2269 31.6569 27.2269 30.6304 26.5938 29.9974L19.6141 23.0176C18.4005 21.8039 18.4005 19.8292 19.6141 18.6157C20.8276 17.402 22.8024 17.4021 24.016 18.6157L36.245 30.8682C36.5616 31.1848 36.9765 31.3431 37.3913 31.3431C37.8061 31.3431 38.2211 31.1847 38.5376 30.8682C39.1706 30.2352 39.1706 29.2087 38.5376 28.5757L29.2424 19.2568C28.2495 18.0355 28.3213 16.2311 29.458 15.0944C30.6717 13.8808 32.6465 13.8808 33.8599 15.0944L37.2655 18.5001C37.8987 19.1333 38.9252 19.1333 39.558 18.5001C40.1911 17.8671 40.1912 16.8406 39.558 16.2076L36.1525 12.8018C33.6746 10.3241 29.6431 10.3243 27.1654 12.8018C26.3466 13.6206 25.8003 14.6095 25.5226 15.6556C24.4493 14.881 23.1647 14.462 21.815 14.462C20.1176 14.462 18.5218 15.123 17.3215 16.3231C15.0912 18.5534 14.8698 22.0422 16.6546 24.5241C15.6083 24.8016 14.6191 25.3481 13.8002 26.1671C11.4619 28.5055 11.3316 32.227 13.4067 34.7211C12.3837 35.0037 11.4176 35.5446 10.615 36.3472C8.13753 38.8249 8.13753 42.8564 10.615 45.3342L11.3385 46.0577C8.60294 49.3424 7.11624 53.4407 7.1224 57.7685L7.12629 60.4537L0.474778 67.1057C-0.158259 67.7387 -0.158259 68.7652 0.474778 69.3984C0.791377 69.7148 1.20622 69.8732 1.62105 69.8732C2.03589 69.8732 2.45089 69.7148 2.76733 69.3984L9.89463 62.2709C10.1992 61.9663 10.3701 61.553 10.3694 61.1222L10.3646 57.7641C10.3587 53.7351 11.9249 49.9467 14.774 47.0977L22.8188 39.0527C22.8188 39.0527 22.8188 39.0525 22.819 39.0525L23.5906 38.2809C23.9271 37.9442 24.3746 37.7589 24.8507 37.7589C25.3268 37.7589 25.7742 37.9442 26.1108 38.2809C26.4475 38.6174 26.6327 39.0648 26.6327 39.5409C26.6327 39.9496 26.4953 40.3369 26.2434 40.6514L24.1004 42.7943C23.4674 43.4273 23.4674 44.4538 24.1004 45.087C24.1019 45.0885 24.1035 45.0896 24.1048 45.0911C24.1063 45.0925 24.1074 45.094 24.1089 45.0955C24.4255 45.4119 24.8403 45.5703 25.2551 45.5703C25.67 45.5703 26.085 45.4119 26.4014 45.0955L34.039 37.4408C34.3756 37.1041 34.823 36.9188 35.2991 36.9188C35.7752 36.9188 36.2226 37.1043 36.5592 37.4408C37.206 38.0876 37.2499 39.1118 36.6923 39.8109L28.913 47.6072C28.2799 48.2402 28.2799 49.2667 28.913 49.8999C29.2296 50.2163 29.6444 50.3747 30.0592 50.3747C30.4741 50.3747 30.8891 50.2163 31.2055 49.8999L41.227 39.8614C41.5635 39.5247 42.0109 39.3394 42.487 39.3394C42.9632 39.3394 43.4106 39.5249 43.7471 39.8614C44.4419 40.5562 44.4419 41.6868 43.7471 42.3816L33.7088 52.4029C33.0758 53.0359 33.0756 54.0624 33.7088 54.6956C34.342 55.3284 35.3685 55.3286 36.0014 54.6956L43.7979 46.9163C44.4967 46.3584 45.5209 46.4024 46.1677 47.0495C46.8625 47.7442 46.8625 48.8749 46.1677 49.5695L35.2229 60.5146C34.4519 61.2855 34.3806 62.4676 35.0535 63.3255C35.7263 64.1833 36.8915 64.3959 37.824 63.8306L41.1305 61.8261C41.9641 61.3205 43.0551 61.5502 43.6142 62.3489C43.9029 62.7612 44.0109 63.2605 43.9185 63.7552C43.8261 64.2496 43.5451 64.6763 43.1274 64.9564L35.4776 70.0862C32.9884 71.7555 30.0897 72.6372 27.093 72.6372C27.086 72.6372 27.0787 72.6372 27.0717 72.6372L21.876 72.6297C21.8752 72.6297 21.8745 72.6297 21.8737 72.6297C21.4438 72.6297 21.0314 72.8006 20.7274 73.1045L13.6 80.232C12.9669 80.8651 12.9669 81.8915 13.6 82.5247C13.9166 82.8412 14.3314 82.9995 14.7462 82.9995C15.1611 82.9995 15.5761 82.8412 15.8925 82.5247L22.5442 75.8731L27.0672 75.8795C27.0758 75.8795 27.0841 75.8795 27.0928 75.8795C30.7346 75.8795 34.2582 74.8077 37.2832 72.7792L38.9213 71.6807C42.2687 73.296 45.993 74.1502 49.709 74.1502C49.7205 74.1502 49.7327 74.1502 49.7444 74.1502L53.7426 74.1445L61.9739 82.3757C62.2905 82.6922 62.7053 82.8506 63.1202 82.8506C63.535 82.8506 63.95 82.6922 64.2664 82.3757C64.8995 81.7427 64.8995 80.7162 64.2664 80.083ZM16.9169 40.3696C16.9167 40.3698 16.9167 40.3698 16.9166 40.37L13.5761 43.7104L12.9078 43.042C11.6942 41.8283 11.6942 39.8536 12.9078 38.6401C14.0446 37.5032 15.8492 37.4316 17.0704 38.4245L17.9662 39.3203L16.9169 40.3696Z" fill="#223C42"/>
<path d="M82.525 61.8256C82.2235 61.5224 81.8053 61.3506 81.3789 61.3506C80.9526 61.3506 80.5343 61.5224 80.2328 61.8256C79.9313 62.1271 79.7578 62.5437 79.7578 62.9717C79.7578 63.398 79.9313 63.8163 80.2328 64.1176C80.5343 64.4192 80.9526 64.5928 81.3789 64.5928C81.8053 64.5928 82.2235 64.4193 82.525 64.1176C82.8265 63.8145 83 63.398 83 62.9717C83 62.5436 82.8265 62.1271 82.525 61.8256Z" fill="#223C42"/>
<path d="M78.1658 57.4657L74.2937 53.5936L74.3031 47.0392C74.3101 42.0871 72.8561 37.2956 70.098 33.1826L62.9627 22.542C61.9881 21.0885 60.504 20.1112 58.7839 19.7899C57.0636 19.4686 55.3269 19.8445 53.8935 20.8483C51.5449 22.4929 50.611 25.4602 51.4415 28.0905L47.2047 23.8536C46.5717 23.2208 45.5452 23.2208 44.912 23.8536C44.279 24.4867 44.279 25.5132 44.912 26.1464L54.0135 35.2478C54.8555 36.0898 56.147 36.1678 57.084 35.4326C58.021 34.6976 58.2531 33.4249 57.6357 32.4064L54.8474 27.807C53.972 26.3629 54.3698 24.4729 55.7531 23.5043C56.467 23.0045 57.3325 22.8173 58.1886 22.9773C59.0454 23.1373 59.7844 23.6241 60.2698 24.3479L67.405 34.9885C69.8028 38.5643 71.0669 42.7297 71.0608 47.0346L71.0505 54.2618C71.0499 54.6925 71.2208 55.1059 71.5254 55.4105L75.8733 59.7584C76.1899 60.0749 76.6047 60.2333 77.0196 60.2333C77.4344 60.2333 77.8494 60.0749 78.1658 59.7584C78.7989 59.1254 78.7989 58.0989 78.1658 57.4657Z" fill="#223C42"/>
<path d="M43.3934 20.0436C43.0935 19.7421 42.6753 19.5686 42.2489 19.5686C41.821 19.5686 41.4043 19.7421 41.1012 20.0436C40.7997 20.3451 40.6262 20.7634 40.6262 21.1897C40.6262 21.6177 40.7997 22.0343 41.1012 22.3358C41.4043 22.6373 41.821 22.8108 42.2489 22.8108C42.6753 22.8108 43.0919 22.6373 43.3934 22.3358C43.6966 22.0343 43.87 21.616 43.87 21.1897C43.87 20.7634 43.6966 20.3451 43.3934 20.0436Z" fill="#223C42"/>
<path d="M58.438 45.2C59.071 44.5669 59.071 43.5405 58.438 42.9073C57.805 42.2744 56.7785 42.2744 56.1453 42.9073L55.4382 43.6144C52.4109 46.6418 52.4109 51.5676 55.4382 54.5949C55.7548 54.9113 56.1696 55.0697 56.5844 55.0697C56.9993 55.0697 57.4143 54.9113 57.7307 54.5949C58.3637 53.9618 58.3639 52.9354 57.7307 52.3022C55.9676 50.5391 55.9676 47.67 57.7307 45.9069L58.438 45.2Z" fill="#223C42"/>
<path d="M77.3748 8.75415C76.3443 8.75415 75.3369 9.0466 74.4659 9.58139C73.5949 9.0466 72.5875 8.75415 71.557 8.75415C68.4552 8.75415 65.9316 11.3239 65.9316 14.4823C65.9316 16.2723 67.2186 18.422 69.8662 21.0547C71.6488 22.8272 73.4072 24.1763 73.4812 24.2328C73.7717 24.4551 74.1188 24.5661 74.4659 24.5661C74.813 24.5661 75.1599 24.4551 75.4505 24.2328C75.5246 24.1763 77.283 22.827 79.0656 21.0547C81.7132 18.4222 83.0001 16.2723 83.0001 14.4823C83.0001 11.3237 80.4766 8.75415 77.3748 8.75415ZM74.4654 20.8712C71.7562 18.6211 69.1738 15.7501 69.1738 14.4823C69.1738 13.1115 70.2429 11.9963 71.557 11.9963C72.2106 11.9963 72.8205 12.2672 73.2744 12.7594C73.5814 13.092 74.0133 13.2812 74.4659 13.2812C74.9185 13.2812 75.3505 13.092 75.6574 12.7594C76.1113 12.2674 76.7212 11.9963 77.3748 11.9963C78.6888 11.9963 79.758 13.1115 79.758 14.4823C79.758 15.7469 77.1747 18.6187 74.4654 20.8712Z" fill="#223C42"/>
<path d="M11.4431 0.000488289C10.4126 0.000488289 9.40526 0.292934 8.53425 0.827732C7.66323 0.292934 6.65589 0.000488289 5.62536 0.000488289C2.52356 0.00032618 0 2.56992 0 5.72846C0 7.51847 1.28699 9.66821 3.93456 12.3009C5.71711 14.0734 7.47567 15.4226 7.5496 15.4792C7.8401 15.7014 8.18717 15.8125 8.53425 15.8125C8.88132 15.8125 9.22824 15.7014 9.5189 15.4792C9.59298 15.4226 11.3514 14.0734 13.1339 12.301C15.7815 9.66837 17.0685 7.51864 17.0685 5.72862C17.0685 2.57008 14.5449 0.000488289 11.4431 0.000488289ZM8.53376 12.1174C5.82443 9.86728 3.24219 6.99648 3.24219 5.72846C3.24219 4.35766 4.3113 3.24251 5.62536 3.24251C6.27898 3.24251 6.88884 3.5134 7.34274 4.00556C7.64978 4.33821 8.08164 4.52739 8.53425 4.52739C8.98686 4.52739 9.41888 4.33821 9.72575 4.00556C10.1797 3.51356 10.7895 3.24251 11.4431 3.24251C12.7572 3.24251 13.8263 4.35766 13.8263 5.72846C13.8263 6.99291 11.2431 9.86484 8.53376 12.1174Z" fill="#223C42"/>
</g>
<defs>
<clipPath id="clip0_108:393">
<rect width="83" height="83" fill="white"/>
</clipPath>
</defs>
</svg>
