<svg width="94" height="94" viewBox="0 0 94 94" fill="none" xmlns="http://www.w3.org/2000/svg">
<path d="M78.721 83.1802V92.4335C78.721 93.2986 78.0196 94 77.1546 94C76.2895 94 75.5881 93.2986 75.5881 92.4335V83.1802C75.5881 75.9755 69.7579 70.1449 62.5526 70.1451C59.1434 70.1451 56.0502 68.4083 54.278 65.499C53.828 64.7602 54.062 63.7963 54.801 63.3463C55.5397 62.8961 56.5035 63.1303 56.9537 63.8693C58.1524 65.8374 60.2454 67.0122 62.5526 67.0122C71.4887 67.0118 78.721 74.2434 78.721 83.1802ZM51.3851 67.4778C51.5693 68.3231 51.0334 69.1577 50.1881 69.3419C46.0656 70.2401 41.8728 69.3409 38.5344 67.0623C35.2296 70.6039 30.8635 70.1451 31.448 70.1451C24.2432 70.1449 18.4125 75.9749 18.4125 83.1802V92.4335C18.4125 93.2986 17.7111 94 16.846 94C15.9809 94 15.2795 93.2986 15.2795 92.4335V83.1802C15.2795 74.2444 22.5105 67.0122 31.4476 67.0122C35.0626 67.0122 37.9932 64.0996 37.9932 60.4836V60.071C31.1558 56.8016 26.3566 49.9313 26.064 41.9308C23.2503 41.2543 21.1538 38.7358 21.1538 35.7394V27.6186C21.0682 23.6437 21.6584 13.6883 28.9171 6.69131C37.8802 -1.94889 52.2541 -1.40004 62.8234 3.68802C63.8535 4.18439 64.01 5.57619 63.1545 6.29696C68.5089 7.60299 73.126 10.8945 76.0923 15.6053C76.2454 15.8479 76.5258 16.2287 76.4526 16.8363C76.4072 17.2144 76.2946 17.5344 76.0032 17.83C74.0941 19.7662 73.0428 22.3318 73.0428 25.0545V35.7398C73.0428 36.6048 72.3414 37.3062 71.4763 37.3062C70.6112 37.3062 69.9099 36.6048 69.9099 35.7398V25.0545C69.9099 21.9144 70.9827 18.9338 72.9531 16.5395C69.9498 12.2442 65.2641 9.48177 59.9648 8.91432L57.2115 8.61943C55.6016 8.44712 55.2858 6.22921 56.7819 5.61339L58.0341 5.09783C41.7261 -0.587443 24.2865 5.7295 24.2865 27.6016V35.7394C24.2865 36.9824 25.0024 38.0626 26.0488 38.6052V28.45C26.0488 22.4039 30.9678 17.4848 37.014 17.4848H56.9864C63.0325 17.4848 67.9516 22.4035 67.9516 28.4495V41.2754C67.9516 54.8986 54.639 65.2462 41.0927 61.2582C41.0046 62.3759 40.7263 63.4544 40.273 64.4569C42.9082 66.2666 46.2359 66.9965 49.521 66.2807C50.3663 66.0966 51.2008 66.6325 51.3851 67.4778ZM47.0002 58.9749C56.8254 58.9749 64.8187 50.9816 64.8187 41.1564V28.4495C64.8187 24.1311 61.3051 20.6177 56.9864 20.6177H37.014C32.6953 20.6177 29.1817 24.1313 29.1817 28.45V41.1564C29.1817 50.9816 37.1749 58.9749 47.0002 58.9749ZM62.8606 85.9719H58.1612C57.2961 85.9719 56.5948 86.6732 56.5948 87.5383C56.5948 88.4034 57.2961 89.1048 58.1612 89.1048H62.8606C63.7257 89.1048 64.4271 88.4034 64.4271 87.5383C64.4271 86.6732 63.7257 85.9719 62.8606 85.9719Z" fill="#223C42"/>
</svg>
