<svg width="97" height="97" viewBox="0 0 97 97" fill="none" xmlns="http://www.w3.org/2000/svg">
<path d="M48.4673 53.8441C36.6451 53.4587 33.8098 43.3366 33.2029 40.0688C32.0648 39.8051 31.0507 39.1609 30.3283 38.2428C29.5036 37.1064 29.121 35.7084 29.2521 34.3104C29.1585 33.5571 29.2239 32.7926 29.4443 32.0662C29.6647 31.3398 30.0351 30.6678 30.5315 30.0935C30.8117 29.8063 31.1339 29.5632 31.4871 29.3726C29.2898 25.8251 28.2076 21.6999 28.3805 17.5307C29.7489 7.75207 37.6295 6.80042 40.0978 6.74536C41.2338 5.42409 42.6538 4.37685 44.2518 3.682C47.245 2.47464 50.5533 2.29031 53.6621 3.15767C59.7731 4.75293 63.8484 7.81236 65.7818 12.2521C68.5345 18.5623 66.12 25.8255 64.7332 29.0868C65.2621 29.2587 65.7495 29.5386 66.1646 29.9087C66.7294 30.4821 67.155 31.1775 67.4086 31.9413C67.6622 32.7051 67.7371 33.517 67.6274 34.3143C67.7598 35.7123 67.3776 37.1105 66.5526 38.2468C65.8294 39.1647 64.815 39.8087 63.6767 40.0727C63.0698 43.3366 60.241 53.4587 48.4673 53.8441ZM33.6774 31.4686C33.2125 31.4469 32.7578 31.6089 32.4112 31.9195C32.1713 32.2555 32.0004 32.6358 31.9083 33.0383C31.8163 33.4408 31.805 33.8576 31.8751 34.2645C31.8806 34.352 31.8775 34.4398 31.8659 34.5267C31.7947 35.2791 31.989 36.0326 32.4151 36.6568C32.6809 36.9537 33.0034 37.1945 33.3635 37.3651C33.7237 37.5358 34.1143 37.6327 34.5124 37.6503C34.8121 37.6858 35.0905 37.8235 35.3004 38.0404C35.5103 38.2572 35.639 38.5399 35.6646 38.8406C35.7079 39.3282 36.8706 50.8437 48.4699 51.2238C60.0051 50.8437 61.173 39.3282 61.2163 38.8379C61.2425 38.5377 61.3714 38.2557 61.5813 38.0394C61.7912 37.8231 62.0692 37.6857 62.3685 37.6503C62.7666 37.6329 63.1573 37.536 63.5175 37.3653C63.8776 37.1947 64.2001 36.9538 64.4658 36.6568C64.8938 36.0295 65.0882 35.272 65.015 34.5162C65.0041 34.4319 65.001 34.3468 65.0058 34.2619C65.0767 33.8416 65.0608 33.4113 64.9591 32.9974C64.8574 32.5836 64.6722 32.1949 64.4146 31.8553C64.0052 31.5537 63.4958 31.4205 62.9911 31.483C62.7485 31.526 62.4987 31.4998 62.2704 31.4074C62.042 31.315 61.8443 31.16 61.6999 30.9604C61.5556 30.7608 61.4704 30.5245 61.4542 30.2786C61.438 30.0328 61.4913 29.7874 61.6082 29.5705C61.6567 29.4788 66.4582 20.366 63.3726 13.2837C61.7747 9.6239 58.2866 7.06913 53.0027 5.69016C50.4631 4.97147 47.7575 5.10968 45.3043 6.0834C43.9087 6.68469 42.6923 7.63655 41.773 8.84659C41.6407 9.0266 41.4641 9.16943 41.2604 9.26128C41.0568 9.35312 40.8329 9.39089 40.6103 9.37092C40.2708 9.34339 32.2447 8.82431 30.9863 17.7968C30.9863 17.7968 30.6233 24.9342 34.7576 29.2598C34.9377 29.4482 35.0576 29.686 35.102 29.9428C35.1464 30.1996 35.1131 30.4639 35.0066 30.7017C34.9084 30.9457 34.7353 31.1522 34.5122 31.2914C34.2891 31.4307 34.0276 31.4954 33.7653 31.4764L33.6774 31.4686Z" fill="black"/>
<path d="M62.7629 31.5002C62.4246 31.5005 62.0993 31.37 61.855 31.1359C61.6107 30.9019 61.4663 30.5824 61.4521 30.2444C61.4364 29.9049 61.03 21.9863 55.1183 21.2247C52.4143 21.5681 49.6687 21.354 47.0506 20.5957C44.4326 19.8373 41.9976 18.5507 39.8958 16.8152C38.2245 18.0722 34.3734 21.8932 35.114 30.0426C35.1238 30.3761 35.006 30.7009 34.7846 30.9506C34.5632 31.2003 34.2549 31.3561 33.9226 31.3864C33.5903 31.4167 33.2589 31.319 32.9961 31.1134C32.7332 30.9078 32.5587 30.6097 32.5081 30.2798C31.4214 18.3239 39.0989 14.1739 39.4252 14.0035C39.6682 13.8767 39.9448 13.8292 40.2161 13.8678C40.4875 13.9063 40.7399 14.029 40.9379 14.2184C42.8063 15.9107 45.018 17.1795 47.422 17.938C49.8259 18.6966 52.3654 18.927 54.8666 18.6136C54.9866 18.5942 55.1086 18.5898 55.2297 18.6005C61.8939 19.2939 63.9295 26.4536 64.0737 30.1356C64.0872 30.4825 63.9626 30.8205 63.7272 31.0756C63.4918 31.3306 63.1648 31.4819 62.818 31.4962L62.7629 31.5002Z" fill="black"/>
<path d="M85.3194 94.3785H11.6807C11.333 94.3785 10.9996 94.2404 10.7538 93.9946C10.508 93.7488 10.3699 93.4153 10.3699 93.0677V78.4548C10.3792 73.8362 12.2198 69.4099 15.488 66.1464C18.7561 62.8829 23.1851 61.0487 27.8037 61.0459H30.3204C30.6681 61.0459 31.0015 61.184 31.2473 61.4298C31.4931 61.6756 31.6312 62.0091 31.6312 62.3567C31.6312 62.7044 31.4931 63.0378 31.2473 63.2836C31.0015 63.5294 30.6681 63.6675 30.3204 63.6675H27.8037C23.8802 63.6696 20.1176 65.2274 17.341 67.9994C14.5643 70.7714 13.0002 74.5313 12.9915 78.4548V91.7569H84.0086V78.4548C84.0041 74.5343 82.4447 70.7758 79.6725 68.0036C76.9004 65.2314 73.1418 63.672 69.2214 63.6675H66.5237C66.1761 63.6675 65.8426 63.5294 65.5968 63.2836C65.351 63.0378 65.2129 62.7044 65.2129 62.3567C65.2129 62.0091 65.351 61.6756 65.5968 61.4298C65.8426 61.184 66.1761 61.0459 66.5237 61.0459H69.2214C73.8364 61.0525 78.2606 62.8887 81.524 66.1521C84.7874 69.4155 86.6236 73.8397 86.6302 78.4548V93.0677C86.6302 93.4153 86.4921 93.7488 86.2463 93.9946C86.0005 94.2404 85.6671 94.3785 85.3194 94.3785Z" fill="black"/>
<path d="M52.8808 94.3782C52.6922 94.3783 52.5057 94.3376 52.3342 94.2589C52.1627 94.1803 52.0102 94.0656 51.8872 93.9226C51.7641 93.7796 51.6733 93.6117 51.6211 93.4304C51.5688 93.2491 51.5563 93.0587 51.5845 92.8721L56.8893 57.7647C56.9174 57.5789 56.9851 57.4014 57.0878 57.2441C57.1905 57.0868 57.3258 56.9535 57.4845 56.853C57.6432 56.7526 57.8217 56.6874 58.0078 56.662C58.1939 56.6365 58.3833 56.6514 58.5632 56.7055L67.7179 59.4648C67.9002 59.5198 68.0684 59.6138 68.2106 59.7404C68.3529 59.8669 68.4659 60.023 68.5418 60.1976C68.6176 60.3723 68.6545 60.5614 68.6499 60.7517C68.6452 60.9421 68.5992 61.1292 68.5149 61.2999L64.8761 68.6011L66.9865 70.9698C67.1735 71.1812 67.2873 71.4473 67.3109 71.7286C67.3345 72.0099 67.2667 72.2913 67.1176 72.531L53.995 93.7569C53.8776 93.9468 53.7136 94.1035 53.5186 94.2123C53.3236 94.321 53.1041 94.3781 52.8808 94.3782ZM59.2566 59.6522L55.1341 86.9341L64.3793 71.9909L62.3305 69.6904C62.1562 69.495 62.0444 69.2518 62.0096 68.9922C61.9748 68.7326 62.0185 68.4686 62.1352 68.2341L65.4751 61.5306L59.2566 59.6522Z" fill="black"/>
<path d="M43.9685 94.3783C43.745 94.3784 43.5252 94.3214 43.33 94.2127C43.1348 94.1039 42.9706 93.9471 42.853 93.757L29.7265 72.535C29.5774 72.2953 29.5096 72.0139 29.5332 71.7326C29.5568 71.4514 29.6706 71.1852 29.8576 70.9738L31.968 68.6052L28.3292 61.3039C28.2449 61.1332 28.1989 60.9461 28.1942 60.7558C28.1896 60.5654 28.2265 60.3763 28.3023 60.2016C28.3782 60.027 28.4912 59.8709 28.6335 59.7444C28.7757 59.6178 28.9439 59.5238 29.1262 59.4688L38.2809 56.7096C38.4607 56.6556 38.65 56.6409 38.8359 56.6665C39.0219 56.692 39.2002 56.7572 39.3588 56.8577C39.5173 56.9581 39.6525 57.0914 39.7551 57.2486C39.8577 57.4057 39.9254 57.5831 39.9535 57.7687L45.261 92.8761C45.2884 93.0621 45.2755 93.2517 45.2232 93.4323C45.1709 93.6128 45.0804 93.78 44.9579 93.9224C44.8353 94.0649 44.6835 94.1793 44.5128 94.258C44.3421 94.3367 44.1565 94.3777 43.9685 94.3783ZM32.4701 71.9871L41.7152 86.9303L37.5927 59.6523L31.3742 61.5268L34.7129 68.2303C34.8297 68.4646 34.8737 68.7286 34.8391 68.9882C34.8045 69.2477 34.693 69.491 34.5189 69.6866L32.4701 71.9871Z" fill="black"/>
<path d="M48.5222 69.9383C45.6879 69.9363 42.8563 69.7647 40.0426 69.4245C39.8681 69.4085 39.6985 69.3577 39.544 69.2751C39.3895 69.1925 39.2531 69.0797 39.1429 68.9434C39.0327 68.8072 38.951 68.6503 38.9025 68.4819C38.854 68.3135 38.8398 68.1371 38.8606 67.9631C38.8815 67.7891 38.937 67.6211 39.0239 67.469C39.1109 67.3168 39.2274 67.1836 39.3667 67.0773C39.506 66.971 39.6651 66.8936 39.8348 66.8499C40.0045 66.8061 40.1812 66.7968 40.3545 66.8225C45.7117 67.4813 51.1295 67.4813 56.4867 66.8225C56.8283 66.7856 57.1708 66.8843 57.4404 67.0974C57.71 67.3105 57.8852 67.6209 57.9281 67.9619C57.9711 68.3028 57.8784 68.647 57.6701 68.9203C57.4618 69.1936 57.1545 69.3742 56.8144 69.4232C54.0638 69.7684 51.2943 69.9404 48.5222 69.9383Z" fill="black"/>
<path d="M58.1883 59.2708C57.9842 59.2701 57.7832 59.2217 57.6011 59.1295C57.4191 59.0373 57.261 58.904 57.1396 58.7399C55.1918 56.1065 54.8392 50.8869 54.8064 50.301C54.7863 49.954 54.9049 49.6133 55.1359 49.3538C55.367 49.0942 55.6916 48.937 56.0385 48.9167C56.3845 48.9005 56.7231 49.0204 56.9818 49.2506C57.2405 49.4809 57.3988 49.8034 57.4228 50.1489C57.5027 51.5279 57.9877 55.48 59.2461 57.1814C59.3899 57.3762 59.477 57.6069 59.4976 57.8482C59.5183 58.0894 59.4717 58.3316 59.3631 58.548C59.2545 58.7644 59.0881 58.9465 58.8824 59.0741C58.6766 59.2016 58.4395 59.2697 58.1974 59.2708H58.1883Z" fill="black"/>
<path d="M38.6609 59.271C38.4188 59.2699 38.1817 59.2018 37.976 59.0743C37.7702 58.9467 37.6038 58.7646 37.4952 58.5482C37.3866 58.3318 37.3401 58.0896 37.3607 57.8484C37.3814 57.6071 37.4685 57.3764 37.6123 57.1816C38.8733 55.4775 39.357 51.5268 39.4369 50.1491C39.4469 49.977 39.4907 49.8085 39.5658 49.6533C39.6409 49.498 39.7458 49.3591 39.8746 49.2445C40.0034 49.1298 40.1535 49.0417 40.3163 48.985C40.4792 48.9284 40.6516 48.9043 40.8238 48.9143C40.9959 48.9243 41.1644 48.9681 41.3196 49.0432C41.4748 49.1183 41.6137 49.2232 41.7284 49.352C41.843 49.4808 41.9312 49.6309 41.9879 49.7937C42.0445 49.9566 42.0685 50.129 42.0585 50.3012C42.0258 50.8871 41.6653 56.1067 39.7253 58.7401C39.6023 58.9063 39.4418 59.041 39.2568 59.1333C39.0718 59.2255 38.8676 59.2727 38.6609 59.271Z" fill="black"/>
<path d="M74.9193 76.006C74.5781 76.0062 74.2504 75.8733 74.0056 75.6356C73.7608 75.398 73.6184 75.0742 73.6085 74.7332C73.3634 66.1972 70.1178 63.5114 70.0863 63.4852C69.8155 63.2701 69.6399 62.9574 69.5972 62.6142C69.5546 62.271 69.6483 61.9248 69.8583 61.65C70.0668 61.3775 70.3744 61.1981 70.7143 61.151C71.0542 61.1039 71.399 61.1928 71.6737 61.3984C71.8468 61.5294 75.9431 64.7108 76.2301 74.6572C76.24 75.0044 76.1116 75.3414 75.8732 75.5941C75.6348 75.8467 75.3059 75.9944 74.9586 76.0047L74.9193 76.006Z" fill="black"/>
<path d="M74.9259 83.7451C73.901 83.7454 72.899 83.4417 72.0467 82.8725C71.1945 82.3033 70.5301 81.4941 70.1377 80.5473C69.7453 79.6005 69.6425 78.5586 69.8423 77.5534C70.0421 76.5482 70.5355 75.6248 71.2601 74.9C71.9847 74.1752 72.908 73.6815 73.9132 73.4815C74.9184 73.2815 75.9603 73.384 76.9072 73.7761C77.8541 74.1683 78.6634 74.8324 79.2328 75.6846C79.8023 76.5367 80.1062 77.5386 80.1062 78.5635C80.1048 79.9371 79.5586 81.254 78.5875 82.2254C77.6163 83.1968 76.2995 83.7434 74.9259 83.7451ZM74.9259 76.0035C74.4195 76.0032 73.9244 76.1531 73.5032 76.4343C73.0821 76.7154 72.7537 77.1151 72.5598 77.5829C72.3658 78.0506 72.3149 78.5654 72.4136 79.0621C72.5122 79.5588 72.7559 80.015 73.1139 80.3732C73.4719 80.7314 73.928 80.9753 74.4246 81.0742C74.9213 81.1731 75.4361 81.1225 75.9039 80.9287C76.3718 80.735 76.7717 80.4069 77.053 79.9859C77.3344 79.5649 77.4846 79.0698 77.4846 78.5635C77.4839 77.885 77.2141 77.2344 76.7345 76.7545C76.2548 76.2746 75.6044 76.0045 74.9259 76.0035Z" fill="black"/>
<path d="M21.0804 76.006C20.7483 76.0068 20.4282 75.8815 20.1849 75.6555C19.9416 75.4295 19.7931 75.1195 19.7696 74.7882C19.0552 64.7277 24.5986 61.5123 24.8345 61.3799C25.1373 61.2091 25.4956 61.1655 25.8305 61.2588C26.1655 61.3521 26.4496 61.5746 26.6205 61.8774C26.7914 62.1802 26.835 62.5385 26.7417 62.8734C26.6484 63.2083 26.4259 63.4925 26.1231 63.6634C25.9238 63.7813 21.7974 66.3282 22.3833 74.6034C22.4078 74.9502 22.2936 75.2925 22.0657 75.555C21.8378 75.8176 21.515 75.9788 21.1682 76.0033L21.0804 76.006Z" fill="black"/>
<path d="M18.4288 86.5017C18.2259 86.5026 18.0257 86.4565 17.8437 86.3669C17.6617 86.2772 17.503 86.1466 17.3801 85.9853C16.7403 85.145 16.2689 84.1889 15.992 83.1696C15.3835 81.1843 15.5831 79.0391 16.5475 77.2002C17.5119 75.3613 19.163 73.9773 21.1422 73.349C22.0809 73.0851 23.0628 73.0108 24.0306 73.1305C24.9983 73.2502 25.9325 73.5616 26.7786 74.0464C28.2614 74.9031 29.4475 76.1919 30.1783 77.7406C30.9091 79.2894 31.1498 81.0243 30.8684 82.7135C30.8114 83.0564 30.6204 83.3627 30.3376 83.5649C30.0548 83.7671 29.7032 83.8486 29.3603 83.7916C29.0173 83.7346 28.7111 83.5437 28.5089 83.2609C28.3067 82.978 28.2251 82.6265 28.2821 82.2835C28.4745 81.1261 28.3111 79.9375 27.8135 78.8749C27.3159 77.8123 26.5076 76.9258 25.4954 76.3324C24.9496 76.0173 24.3464 75.814 23.7212 75.7346C23.096 75.6551 22.4612 75.7011 21.8539 75.8697C20.5405 76.309 19.4532 77.2484 18.8279 78.4842C18.2026 79.72 18.0898 81.1525 18.514 82.471C18.7037 83.1687 19.0268 83.8231 19.4656 84.3979C19.6132 84.5921 19.7037 84.8238 19.7268 85.0667C19.75 85.3095 19.7048 85.5541 19.5965 85.7727C19.4882 85.9914 19.3211 86.1754 19.1138 86.3042C18.9066 86.433 18.6675 86.5014 18.4235 86.5017H18.4288Z" fill="black"/>
<path d="M29.5928 83.8118C29.5417 83.8118 29.4892 83.8118 29.4368 83.8039L27.9595 83.6296C27.7885 83.6093 27.6231 83.5555 27.4729 83.4713C27.3227 83.3871 27.1905 83.2741 27.0839 83.1388C26.9774 83.0035 26.8985 82.8486 26.8518 82.6828C26.8051 82.517 26.7916 82.3437 26.8119 82.1726C26.8322 82.0016 26.886 81.8363 26.9702 81.6861C27.0544 81.5358 27.1674 81.4037 27.3027 81.2971C27.5759 81.0819 27.9235 80.984 28.2689 81.025L29.7461 81.2007C30.0779 81.2401 30.3821 81.4048 30.5965 81.661C30.8109 81.9172 30.9195 82.2456 30.8999 82.5791C30.8803 82.9127 30.7341 83.2261 30.4912 83.4555C30.2482 83.6848 29.9269 83.8128 29.5928 83.8131V83.8118Z" fill="black"/>
<path d="M18.4288 86.5135C18.121 86.5139 17.8229 86.406 17.5867 86.2087C17.3505 86.0114 17.1912 85.7373 17.1368 85.4343C17.0825 85.1314 17.1364 84.819 17.2892 84.5518C17.442 84.2847 17.684 84.0798 17.9727 83.9731L19.5456 83.3924C19.707 83.3322 19.8787 83.3043 20.0508 83.3104C20.223 83.3165 20.3922 83.3564 20.549 83.4279C20.7057 83.4995 20.8468 83.6011 20.9642 83.7272C21.0816 83.8532 21.173 84.0011 21.2333 84.1625C21.2935 84.3239 21.3214 84.4956 21.3153 84.6677C21.3092 84.8399 21.2693 85.0091 21.1978 85.1658C21.1263 85.3226 21.0246 85.4637 20.8985 85.5811C20.7725 85.6985 20.6246 85.7899 20.4632 85.8502L18.8902 86.4322C18.7425 86.4868 18.5863 86.5143 18.4288 86.5135Z" fill="black"/>
</svg>
