<svg width="18" height="18" viewBox="0 0 18 18" fill="none" xmlns="http://www.w3.org/2000/svg">
<path fill-rule="evenodd" clip-rule="evenodd" d="M1.82031 4.5001C1.82031 4.26341 2.01219 4.07153 2.24888 4.07153H15.7489C15.9856 4.07153 16.1775 4.26341 16.1775 4.5001C16.1775 4.7368 15.9856 4.92868 15.7489 4.92868H2.24888C2.01219 4.92868 1.82031 4.7368 1.82031 4.5001ZM1.82031 9.0001C1.82031 8.76341 2.01219 8.57153 2.24888 8.57153H15.7489C15.9856 8.57153 16.1775 8.76341 16.1775 9.0001C16.1775 9.2368 15.9856 9.42867 15.7489 9.42867H2.24888C2.01219 9.42867 1.82031 9.2368 1.82031 9.0001ZM2.24888 13.0715C2.01219 13.0715 1.82031 13.2634 1.82031 13.5001C1.82031 13.7368 2.01219 13.9287 2.24888 13.9287H15.7489C15.9856 13.9287 16.1775 13.7368 16.1775 13.5001C16.1775 13.2634 15.9856 13.0715 15.7489 13.0715H2.24888Z" fill="#9FA2A3"/>
</svg>
