<svg width="58" height="58" viewBox="0 0 58 58" fill="none" xmlns="http://www.w3.org/2000/svg">
<path d="M28.9804 32.1953C21.9114 31.9648 20.2161 25.9125 19.8532 23.9585C19.1727 23.8008 18.5664 23.4157 18.1344 22.8667C17.6412 22.1872 17.4125 21.3513 17.4909 20.5153C17.4349 20.0649 17.474 19.6078 17.6058 19.1734C17.7376 18.7391 17.959 18.3373 18.2559 17.9939C18.4234 17.8221 18.6161 17.6768 18.8273 17.5628C17.5134 15.4417 16.8663 12.9751 16.9697 10.4821C17.788 4.63509 22.5001 4.06606 23.9759 4.03314C24.6552 3.24311 25.5043 2.61692 26.4597 2.20144C28.2495 1.47952 30.2277 1.3693 32.0865 1.88793C35.7405 2.84179 38.1773 4.67114 39.3334 7.32582C40.9793 11.099 39.5356 15.4419 38.7064 17.392C39.0226 17.4947 39.3141 17.6621 39.5623 17.8834C39.9 18.2262 40.1544 18.6421 40.3061 19.0988C40.4577 19.5555 40.5025 20.0409 40.437 20.5177C40.5161 21.3536 40.2876 22.1896 39.7943 22.869C39.3618 23.4179 38.7553 23.803 38.0746 23.9608C37.7117 25.9125 36.0203 31.9648 28.9804 32.1953ZM20.137 18.8161C19.859 18.8031 19.5871 18.9 19.3798 19.0857C19.2364 19.2866 19.1342 19.514 19.0792 19.7547C19.0241 19.9954 19.0174 20.2446 19.0593 20.4879C19.0625 20.5402 19.0607 20.5927 19.0538 20.6447C19.0112 21.0945 19.1274 21.5451 19.3822 21.9183C19.5411 22.0958 19.7339 22.2399 19.9493 22.3419C20.1646 22.4439 20.3982 22.5019 20.6362 22.5124C20.8154 22.5336 20.9819 22.616 21.1074 22.7456C21.2329 22.8753 21.3098 23.0443 21.3252 23.2241C21.351 23.5157 22.0463 30.4012 28.982 30.6285C35.8793 30.4012 36.5776 23.5157 36.6035 23.2225C36.6192 23.043 36.6963 22.8744 36.8217 22.745C36.9472 22.6157 37.1135 22.5335 37.2924 22.5124C37.5305 22.502 37.7641 22.444 37.9794 22.342C38.1948 22.24 38.3876 22.0959 38.5465 21.9183C38.8024 21.5433 38.9186 21.0903 38.8749 20.6384C38.8683 20.588 38.8665 20.5371 38.8694 20.4863C38.9118 20.235 38.9023 19.9777 38.8415 19.7303C38.7807 19.4828 38.6699 19.2504 38.5159 19.0473C38.2711 18.867 37.9665 18.7873 37.6647 18.8247C37.5197 18.8504 37.3703 18.8348 37.2338 18.7795C37.0972 18.7242 36.979 18.6316 36.8927 18.5122C36.8064 18.3929 36.7554 18.2516 36.7457 18.1046C36.736 17.9576 36.7679 17.8109 36.8378 17.6812C36.8668 17.6263 39.7378 12.1774 37.8928 7.94266C36.9374 5.75433 34.8517 4.22674 31.6923 3.4022C30.1738 2.97247 28.556 3.05511 27.0891 3.63733C26.2546 3.99687 25.5273 4.56602 24.9776 5.28955C24.8985 5.39718 24.7929 5.48258 24.6711 5.5375C24.5493 5.59242 24.4155 5.615 24.2824 5.60306C24.0794 5.5866 19.2803 5.27622 18.5279 10.6412C18.5279 10.6412 18.3107 14.9089 20.7828 17.4954C20.8905 17.608 20.9622 17.7502 20.9888 17.9038C21.0153 18.0574 20.9954 18.2153 20.9317 18.3576C20.873 18.5035 20.7695 18.6269 20.6361 18.7102C20.5027 18.7934 20.3463 18.8322 20.1895 18.8208L20.137 18.8161Z" fill="#223C42"/>
<path d="M37.5285 18.8351C37.3262 18.8352 37.1316 18.7572 36.9856 18.6173C36.8395 18.4773 36.7532 18.2863 36.7447 18.0842C36.7353 17.8812 36.4923 13.1464 32.9574 12.691C31.3406 12.8963 29.6989 12.7683 28.1335 12.3148C26.568 11.8614 25.1121 11.0921 23.8553 10.0543C22.856 10.806 20.5533 13.0907 20.9961 17.9635C21.002 18.1629 20.9315 18.3571 20.7991 18.5064C20.6668 18.6557 20.4824 18.7489 20.2837 18.767C20.085 18.7851 19.8869 18.7267 19.7297 18.6038C19.5726 18.4808 19.4682 18.3026 19.4379 18.1054C18.7882 10.9565 23.3788 8.47501 23.574 8.37311C23.7192 8.2973 23.8846 8.26892 24.0469 8.29198C24.2091 8.31503 24.3601 8.38836 24.4785 8.50165C25.5956 9.51351 26.9181 10.2722 28.3555 10.7257C29.7929 11.1793 31.3114 11.3171 32.8069 11.1297C32.8787 11.1181 32.9516 11.1154 33.024 11.1218C37.0088 11.5365 38.226 15.8175 38.3122 18.0191C38.3203 18.2265 38.2458 18.4287 38.105 18.5812C37.9643 18.7337 37.7687 18.8241 37.5614 18.8327L37.5285 18.8351Z" fill="#223C42"/>
<path d="M51.0156 56.4323H6.98422C6.77635 56.4323 6.57699 56.3497 6.43 56.2027C6.28302 56.0558 6.20044 55.8564 6.20044 55.6485V46.9109C6.20604 44.1493 7.30659 41.5026 9.26074 39.5512C11.2149 37.5999 13.8631 36.5031 16.6248 36.5015H18.1296C18.3375 36.5015 18.5369 36.584 18.6838 36.731C18.8308 36.878 18.9134 37.0774 18.9134 37.2852C18.9134 37.4931 18.8308 37.6925 18.6838 37.8395C18.5369 37.9865 18.3375 38.069 18.1296 38.069H16.6248C14.2788 38.0703 12.029 39.0017 10.3687 40.6592C8.70845 42.3167 7.77319 44.5649 7.76801 46.9109V54.8647H50.2318V46.9109C50.2292 44.5667 49.2967 42.3193 47.6392 40.6617C45.9816 39.0041 43.7342 38.0717 41.39 38.069H39.777C39.5691 38.069 39.3697 37.9865 39.2227 37.8395C39.0758 37.6925 38.9932 37.4931 38.9932 37.2852C38.9932 37.0774 39.0758 36.878 39.2227 36.731C39.3697 36.584 39.5691 36.5015 39.777 36.5015H41.39C44.1495 36.5054 46.7949 37.6034 48.7462 39.5547C50.6975 41.506 51.7955 44.1514 51.7994 46.9109V55.6485C51.7994 55.8564 51.7168 56.0558 51.5699 56.2027C51.4229 56.3497 51.2235 56.4323 51.0156 56.4323Z" fill="#223C42"/>
<path d="M31.6194 56.4323C31.5065 56.4323 31.3951 56.4079 31.2925 56.3609C31.19 56.3139 31.0988 56.2453 31.0252 56.1598C30.9516 56.0743 30.8973 55.9739 30.8661 55.8655C30.8349 55.7571 30.8274 55.6432 30.8442 55.5317L34.0162 34.5396C34.033 34.4286 34.0734 34.3224 34.1348 34.2284C34.1962 34.1343 34.2771 34.0546 34.3721 33.9945C34.467 33.9344 34.5737 33.8955 34.685 33.8803C34.7963 33.8651 34.9095 33.8739 35.0171 33.9063L40.491 35.5562C40.6 35.5891 40.7006 35.6453 40.7856 35.721C40.8707 35.7966 40.9383 35.8899 40.9836 35.9944C41.029 36.0988 41.051 36.2119 41.0483 36.3257C41.0455 36.4395 41.0179 36.5514 40.9675 36.6535L38.7918 41.0192L40.0537 42.4354C40.1655 42.5619 40.2335 42.721 40.2476 42.8892C40.2618 43.0574 40.2212 43.2256 40.132 43.3689L32.2856 56.0607C32.2154 56.1743 32.1173 56.268 32.0007 56.333C31.8841 56.398 31.7529 56.4322 31.6194 56.4323ZM35.4317 35.6683L32.9667 51.9811L38.4947 43.046L37.2697 41.6705C37.1654 41.5536 37.0986 41.4082 37.0778 41.253C37.057 41.0978 37.0831 40.9399 37.1529 40.7997L39.15 36.7914L35.4317 35.6683Z" fill="#223C42"/>
<path d="M26.2904 56.4326C26.1568 56.4327 26.0254 56.3986 25.9086 56.3335C25.7919 56.2685 25.6937 56.1747 25.6234 56.0611L17.7746 43.3716C17.6854 43.2283 17.6449 43.0601 17.659 42.8919C17.6731 42.7237 17.7412 42.5646 17.853 42.4381L19.1149 41.0219L16.9391 36.6562C16.8887 36.5541 16.8612 36.4422 16.8584 36.3284C16.8556 36.2146 16.8777 36.1015 16.923 35.9971C16.9684 35.8926 17.0359 35.7993 17.121 35.7237C17.2061 35.648 17.3066 35.5918 17.4156 35.5589L22.8896 33.909C22.9971 33.8768 23.1103 33.868 23.2214 33.8833C23.3326 33.8986 23.4392 33.9375 23.5341 33.9976C23.6289 34.0576 23.7097 34.1373 23.7711 34.2313C23.8324 34.3253 23.8729 34.4313 23.8897 34.5423L27.0632 55.5344C27.0796 55.6456 27.0719 55.759 27.0407 55.8669C27.0094 55.9749 26.9553 56.0748 26.882 56.16C26.8087 56.2452 26.7179 56.3136 26.6159 56.3607C26.5138 56.4077 26.4028 56.4322 26.2904 56.4326ZM19.4151 43.044L24.9431 51.9791L22.4781 35.6686L18.7598 36.7894L20.7561 40.7977C20.826 40.9378 20.8523 41.0957 20.8316 41.2509C20.8109 41.4061 20.7442 41.5515 20.6401 41.6685L19.4151 43.044Z" fill="#223C42"/>
<path d="M29.0133 41.8188C27.3186 41.8176 25.6255 41.715 23.943 41.5116C23.8387 41.502 23.7373 41.4716 23.6449 41.4222C23.5525 41.3728 23.471 41.3054 23.4051 41.2239C23.3392 41.1425 23.2903 41.0486 23.2613 40.9479C23.2323 40.8472 23.2238 40.7418 23.2363 40.6377C23.2488 40.5337 23.282 40.4332 23.3339 40.3423C23.3859 40.2513 23.4556 40.1717 23.5389 40.1081C23.6221 40.0445 23.7173 39.9983 23.8188 39.9721C23.9202 39.9459 24.0259 39.9404 24.1295 39.9558C27.3328 40.3497 30.5723 40.3497 33.7756 39.9558C33.9798 39.9337 34.1846 39.9927 34.3458 40.1201C34.507 40.2475 34.6118 40.4331 34.6375 40.637C34.6631 40.8409 34.6077 41.0467 34.4832 41.2101C34.3586 41.3735 34.1749 41.4815 33.9715 41.5108C32.3268 41.7172 30.6708 41.8201 29.0133 41.8188Z" fill="#223C42"/>
<path d="M34.793 35.4405C34.671 35.4401 34.5508 35.4111 34.4419 35.356C34.3331 35.3009 34.2386 35.2211 34.166 35.1231C33.0013 33.5485 32.7904 30.4274 32.7708 30.0771C32.7588 29.8696 32.8297 29.6659 32.9679 29.5107C33.106 29.3555 33.3002 29.2615 33.5076 29.2494C33.7145 29.2397 33.9169 29.3114 34.0716 29.4491C34.2263 29.5868 34.3209 29.7796 34.3353 29.9862C34.3831 30.8107 34.6731 33.1738 35.4255 34.1912C35.5115 34.3076 35.5636 34.4456 35.5759 34.5899C35.5883 34.7341 35.5604 34.8789 35.4955 35.0083C35.4306 35.1377 35.3311 35.2466 35.208 35.3229C35.085 35.3991 34.9432 35.4399 34.7985 35.4405H34.793Z" fill="#223C42"/>
<path d="M23.117 35.4401C22.9722 35.4394 22.8304 35.3987 22.7074 35.3224C22.5844 35.2461 22.4849 35.1373 22.4199 35.0079C22.355 34.8785 22.3272 34.7337 22.3395 34.5894C22.3519 34.4452 22.4039 34.3072 22.4899 34.1907C23.2439 33.1718 23.5331 30.8095 23.581 29.9857C23.5869 29.8828 23.6131 29.7821 23.658 29.6893C23.7029 29.5964 23.7657 29.5134 23.8427 29.4448C23.9197 29.3763 24.0094 29.3236 24.1068 29.2897C24.2042 29.2558 24.3073 29.2414 24.4102 29.2474C24.5131 29.2534 24.6139 29.2796 24.7067 29.3245C24.7995 29.3694 24.8825 29.4321 24.9511 29.5091C25.0197 29.5861 25.0724 29.6759 25.1063 29.7733C25.1401 29.8706 25.1545 29.9737 25.1485 30.0767C25.1289 30.427 24.9134 33.548 23.7534 35.1226C23.6799 35.222 23.5839 35.3025 23.4733 35.3577C23.3626 35.4129 23.2406 35.4411 23.117 35.4401Z" fill="#223C42"/>
<path d="M44.7972 45.4469C44.5932 45.447 44.3972 45.3675 44.2509 45.2254C44.1045 45.0833 44.0193 44.8897 44.0134 44.6858C43.8668 39.5818 41.9262 37.9759 41.9074 37.9602C41.7454 37.8316 41.6404 37.6446 41.6149 37.4394C41.5894 37.2342 41.6455 37.0272 41.771 36.8629C41.8957 36.6999 42.0796 36.5927 42.2828 36.5645C42.4861 36.5363 42.6922 36.5895 42.8565 36.7124C42.96 36.7908 45.4093 38.693 45.581 44.6404C45.5869 44.848 45.5101 45.0495 45.3676 45.2006C45.225 45.3516 45.0283 45.4399 44.8207 45.4461L44.7972 45.4469Z" fill="#223C42"/>
<path d="M44.801 50.0745C44.1882 50.0747 43.5891 49.8931 43.0795 49.5527C42.5698 49.2124 42.1726 48.7286 41.938 48.1624C41.7034 47.5963 41.6419 46.9733 41.7613 46.3723C41.8808 45.7712 42.1758 45.2191 42.6091 44.7857C43.0424 44.3523 43.5944 44.0571 44.1955 43.9375C44.7965 43.8179 45.4195 43.8792 45.9857 44.1137C46.5519 44.3482 47.0358 44.7453 47.3763 45.2548C47.7168 45.7644 47.8985 46.3634 47.8985 46.9762C47.8977 47.7976 47.5711 48.585 46.9904 49.1659C46.4097 49.7467 45.6223 50.0735 44.801 50.0745ZM44.801 45.4455C44.4982 45.4453 44.2022 45.535 43.9503 45.7031C43.6985 45.8712 43.5022 46.1102 43.3862 46.3899C43.2702 46.6696 43.2398 46.9774 43.2988 47.2744C43.3578 47.5714 43.5035 47.8442 43.7175 48.0583C43.9316 48.2725 44.2043 48.4184 44.5013 48.4775C44.7982 48.5366 45.1061 48.5063 45.3858 48.3905C45.6656 48.2747 45.9047 48.0785 46.0729 47.8267C46.2411 47.575 46.3309 47.279 46.3309 46.9762C46.3305 46.5705 46.1692 46.1815 45.8824 45.8946C45.5956 45.6076 45.2067 45.4461 44.801 45.4455Z" fill="#223C42"/>
<path d="M12.6047 45.4467C12.4061 45.4472 12.2148 45.3723 12.0693 45.2372C11.9238 45.102 11.835 44.9167 11.8209 44.7186C11.3938 38.7031 14.7084 36.7805 14.8495 36.7013C15.0305 36.5991 15.2448 36.5731 15.445 36.6288C15.6453 36.6846 15.8152 36.8177 15.9174 36.9987C16.0195 37.1798 16.0456 37.394 15.9898 37.5943C15.934 37.7946 15.801 37.9645 15.6199 38.0666C15.5008 38.1372 13.0334 39.6601 13.3838 44.6081C13.3984 44.8154 13.3301 45.0201 13.1939 45.1771C13.0576 45.3341 12.8646 45.4305 12.6572 45.4452L12.6047 45.4467Z" fill="#223C42"/>
<path d="M11.0192 51.7227C10.8979 51.7233 10.7781 51.6957 10.6693 51.6421C10.5605 51.5885 10.4656 51.5104 10.3921 51.4139C10.0095 50.9114 9.72769 50.3398 9.5621 49.7303C9.19826 48.5433 9.31763 47.2605 9.89426 46.161C10.4709 45.0614 11.4582 44.2339 12.6416 43.8582C13.2029 43.7004 13.79 43.656 14.3687 43.7275C14.9473 43.7991 15.5059 43.9853 16.0119 44.2752C16.8985 44.7874 17.6077 45.5581 18.0446 46.4841C18.4816 47.4102 18.6256 48.4475 18.4573 49.4576C18.4232 49.6626 18.309 49.8458 18.1399 49.9667C17.9708 50.0876 17.7606 50.1363 17.5555 50.1022C17.3505 50.0681 17.1673 49.954 17.0464 49.7849C16.9255 49.6158 16.8768 49.4056 16.9109 49.2005C17.0259 48.5084 16.9282 47.7977 16.6307 47.1624C16.3331 46.527 15.8498 45.9969 15.2445 45.6421C14.9182 45.4537 14.5575 45.3321 14.1837 45.2846C13.8099 45.2371 13.4303 45.2646 13.0672 45.3654C12.2818 45.6281 11.6317 46.1898 11.2578 46.9288C10.8839 47.6677 10.8165 48.5242 11.0701 49.3126C11.1835 49.7298 11.3768 50.1211 11.6391 50.4647C11.7274 50.5809 11.7815 50.7194 11.7953 50.8646C11.8091 51.0099 11.7822 51.1561 11.7174 51.2868C11.6526 51.4175 11.5527 51.5276 11.4288 51.6046C11.3049 51.6816 11.1619 51.7225 11.016 51.7227H11.0192Z" fill="#223C42"/>
<path d="M17.6946 50.1142C17.6641 50.1142 17.6327 50.1142 17.6014 50.1095L16.718 50.0052C16.6158 49.9931 16.5169 49.9609 16.4271 49.9106C16.3373 49.8602 16.2582 49.7927 16.1945 49.7118C16.1308 49.6309 16.0836 49.5382 16.0557 49.4391C16.0278 49.34 16.0197 49.2363 16.0318 49.1341C16.044 49.0318 16.0762 48.9329 16.1265 48.8431C16.1769 48.7533 16.2444 48.6743 16.3253 48.6105C16.4887 48.4818 16.6965 48.4233 16.903 48.4479L17.7863 48.5529C17.9847 48.5765 18.1666 48.6749 18.2948 48.8281C18.423 48.9813 18.4879 49.1777 18.4762 49.3771C18.4645 49.5765 18.3771 49.764 18.2318 49.9011C18.0866 50.0383 17.8944 50.1147 17.6946 50.115V50.1142Z" fill="#223C42"/>
<path d="M11.0192 51.7297C10.8352 51.7299 10.657 51.6654 10.5157 51.5475C10.3745 51.4295 10.2792 51.2656 10.2467 51.0844C10.2142 50.9033 10.2464 50.7165 10.3378 50.5568C10.4292 50.397 10.5739 50.2745 10.7465 50.2107L11.687 49.8635C11.7835 49.8275 11.8862 49.8108 11.9891 49.8145C12.092 49.8181 12.1932 49.842 12.2869 49.8847C12.3806 49.9275 12.465 49.9883 12.5352 50.0637C12.6054 50.139 12.6601 50.2275 12.6961 50.324C12.7322 50.4205 12.7488 50.5231 12.7452 50.6261C12.7415 50.729 12.7177 50.8302 12.6749 50.9239C12.6321 51.0176 12.5713 51.102 12.496 51.1722C12.4206 51.2424 12.3322 51.2971 12.2357 51.3331L11.2951 51.6811C11.2068 51.7137 11.1134 51.7302 11.0192 51.7297Z" fill="#223C42"/>
</svg>
