<svg width="111" height="108" viewBox="0 0 111 108" fill="none" xmlns="http://www.w3.org/2000/svg">
<path d="M9.70017 17.2973C10.5286 13.9637 12.3363 11.8531 15.3965 10.6301C16.8269 10.0599 18.2842 9.51275 19.78 9.1541C34.4099 5.68256 42.6713 9.84847 46.0834 25.0819C47.4539 31.2019 47.6734 37.5795 48.4527 43.8328C48.7339 46.0997 48.6722 48.5596 49.6004 50.546C50.2747 51.9944 52.2328 53.5026 53.781 53.6957C55.0044 53.8474 56.7197 52.2427 57.7546 51.0334C58.558 50.0908 58.6448 48.5505 59.0565 47.2768C60.7551 41.9982 62.3957 36.7011 64.1704 31.4456C67.182 22.5161 73.4274 16.1064 80.9509 10.7772C82.5006 9.68289 84.2609 8.61161 86.0811 8.20238C96.4673 5.86656 102.076 8.3725 103.356 18.1894C103.699 20.8195 103.984 23.5829 103.549 26.167C101.7 37.138 99.1521 47.9389 93.2422 57.6225C86.348 68.9199 79.4951 80.2404 72.3901 91.4091C71.2679 93.1656 69.0416 94.3933 67.0966 95.437C65.4485 96.3244 63.4636 96.5957 61.0326 97.313C47.53 86.4799 34.0005 75.8124 24.0423 61.7607C18.7664 54.3165 14.7417 45.9019 10.9384 37.5702C8.03079 31.1973 7.97417 24.2404 9.70017 17.2973ZM44.6438 94.1127C48.0016 96.9083 52.0787 98.8487 55.7785 101.249C57.1889 102.169 58.6666 103.107 59.7652 104.339C63.7082 108.762 69.0672 109.332 73.3856 105.199C75.5702 103.111 77.3105 100.481 78.8987 97.8831C84.9009 88.0754 90.6423 78.1069 96.6974 68.3314C103.978 56.5787 108.413 43.8741 110.496 30.2914C111.596 23.1092 110.982 16.1616 107.8 9.56799C106.286 6.43211 104.397 3.53071 100.802 2.31223C92.5061 -0.506401 84.486 -0.451263 77.0093 4.68018C68.6304 10.437 61.4805 17.2652 57.492 26.8338C57.149 27.6522 56.5689 28.3786 55.6119 29.9466C54.9431 27.2935 54.6201 25.4359 54.0001 23.6749C52.6732 19.9044 51.6346 15.9317 49.6528 12.5107C47.2855 8.41383 44.5969 4.09621 39.8069 2.36274C29.0514 -1.52264 18.558 -0.603004 8.57286 5.02504C5.44899 6.7861 3.31319 9.37022 2.16965 12.8464C-0.885072 22.1161 -0.730984 31.3858 2.73864 40.4026C6.38787 49.8838 11.0925 58.8823 17.1458 67.1497C24.8215 77.6425 34.7528 85.8776 44.6438 94.1127Z" fill="#9FA2A3"/>
</svg>
