<svg width="27" height="27" viewBox="0 0 27 27" fill="none" xmlns="http://www.w3.org/2000/svg">
<path d="M13.5 23.1689C13.4475 23.1688 13.3956 23.1575 13.3478 23.1356C13.3001 23.1137 13.2577 23.0817 13.2234 23.0419C13.2132 23.0302 12.185 21.8327 10.9044 20.0941C8.42838 16.7374 5.47662 12.0445 5.47662 8.75305C5.4757 7.05137 6.01611 5.39351 7.01968 4.01926C8.02325 2.64502 9.43795 1.62563 11.0592 1.10854C12.6804 0.591456 14.424 0.603483 16.038 1.14288C17.6519 1.68228 19.0524 2.72109 20.0369 4.10905C20.0929 4.18806 20.1151 4.28605 20.0988 4.38147C20.0825 4.47689 20.0289 4.56192 19.9499 4.61785C19.8709 4.67379 19.7729 4.69604 19.6775 4.67972C19.5821 4.6634 19.497 4.60984 19.4411 4.53083C18.546 3.26939 17.2729 2.32533 15.8059 1.83521C14.3389 1.34508 12.754 1.33429 11.2804 1.80439C9.80686 2.2745 8.52103 3.20113 7.60887 4.45027C6.69672 5.69941 6.20553 7.20632 6.20635 8.75305C6.20635 11.1663 8.08322 15.0404 11.4914 19.6625C12.3627 20.845 13.114 21.7725 13.4982 22.2381C13.8842 21.7725 14.6351 20.8454 15.5068 19.6629C17.4336 17.0501 19.8786 13.3058 20.5922 10.2964C20.6019 10.2485 20.6212 10.2029 20.6488 10.1625C20.6765 10.1222 20.712 10.0878 20.7532 10.0614C20.7944 10.035 20.8405 10.0172 20.8888 10.009C20.937 10.0008 20.9864 10.0024 21.034 10.0137C21.0817 10.0249 21.1265 10.0457 21.166 10.0747C21.2054 10.1037 21.2386 10.1403 21.2636 10.1824C21.2886 10.2244 21.3048 10.2711 21.3114 10.3196C21.318 10.3681 21.3148 10.4174 21.3019 10.4646C20.5605 13.5941 18.0608 17.4288 16.0957 20.0941C14.815 21.8327 13.7868 23.0302 13.7766 23.0419C13.7423 23.0817 13.6999 23.1137 13.6522 23.1356C13.6044 23.1575 13.5525 23.1688 13.5 23.1689Z" fill="#223C42"/>
<path d="M21.0929 8.12013C21.0008 8.1204 20.912 8.08584 20.8444 8.02338C20.7767 7.96092 20.7351 7.87517 20.728 7.78336C20.6869 7.45344 20.6195 7.12732 20.5266 6.80807C20.5169 6.77503 20.512 6.74074 20.512 6.70628C20.5111 6.61565 20.5439 6.52792 20.6041 6.46016C20.6643 6.3924 20.7476 6.34948 20.8377 6.33973C20.9278 6.32999 21.0183 6.35413 21.0916 6.40745C21.1648 6.46077 21.2157 6.53946 21.2341 6.62819C21.3354 6.98225 21.4086 7.34374 21.453 7.70929C21.4546 7.72395 21.4555 7.73869 21.4556 7.75344C21.4561 7.85014 21.4181 7.94309 21.3501 8.01184C21.2821 8.0806 21.1896 8.11955 21.0929 8.12013Z" fill="#223C42"/>
<path d="M13.4999 14.4898C12.371 14.4898 11.2675 14.1551 10.3289 13.5279C9.39031 12.9008 8.65876 12.0094 8.22676 10.9664C7.79477 9.92352 7.68174 8.77591 7.90197 7.66875C8.1222 6.56159 8.66579 5.5446 9.46401 4.74638C10.2622 3.94816 11.2792 3.40456 12.3864 3.18433C13.4935 2.96411 14.6412 3.07713 15.6841 3.50913C16.727 3.94112 17.6184 4.67268 18.2456 5.61128C18.8727 6.54989 19.2075 7.65339 19.2075 8.78225C19.2057 10.2955 18.6038 11.7462 17.5338 12.8162C16.4638 13.8862 15.0131 14.4881 13.4999 14.4898ZM13.4999 3.80476C12.5153 3.80476 11.5529 4.09671 10.7343 4.6437C9.91569 5.19069 9.27766 5.96815 8.90091 6.87775C8.52416 7.78736 8.4256 8.78826 8.6177 9.75387C8.80981 10.7195 9.28394 11.6065 9.98014 12.3026C10.6763 12.9988 11.5633 13.4728 12.529 13.6649C13.4946 13.8569 14.4955 13.7583 15.4051 13.3814C16.3147 13.0046 17.0921 12.3665 17.639 11.5479C18.1859 10.7292 18.4778 9.76679 18.4777 8.78225C18.4761 7.46257 17.9511 6.19743 17.0179 5.26431C16.0847 4.3312 14.8196 3.8063 13.4999 3.80476Z" fill="#223C42"/>
<path d="M17.842 12.2594C17.7839 12.2594 17.7267 12.2456 17.675 12.2191C17.6233 12.1926 17.5788 12.1541 17.545 12.1069C17.0932 11.4669 16.4952 10.944 15.8007 10.5816C15.1062 10.2191 14.3352 10.0277 13.5519 10.0231C13.548 10.0235 13.5441 10.0235 13.5402 10.0231H13.4468C12.6634 10.0277 11.8925 10.2191 11.198 10.5816C10.5035 10.944 9.90549 11.4669 9.45372 12.1069C9.39709 12.1847 9.31203 12.2369 9.21704 12.2523C9.12206 12.2677 9.02485 12.2449 8.94657 12.189C8.8683 12.133 8.81529 12.0484 8.79909 11.9536C8.7829 11.8587 8.80482 11.7613 8.86009 11.6825C9.38252 10.953 10.0692 10.3567 10.8648 9.94165C11.6603 9.52661 12.5423 9.30455 13.4395 9.29341H13.4508H13.5603C14.4575 9.30455 15.3395 9.52661 16.135 9.94165C16.9305 10.3567 17.6173 10.953 18.1397 11.6825C18.1675 11.7215 18.1874 11.7657 18.1982 11.8123C18.209 11.859 18.2105 11.9074 18.2026 11.9547C18.1947 12.0019 18.1776 12.0472 18.1522 12.0878C18.1268 12.1285 18.0937 12.1637 18.0547 12.1915C17.9927 12.2361 17.9183 12.2599 17.842 12.2594Z" fill="#223C42"/>
<path d="M13.4999 10.0272C13.0549 10.0273 12.6198 9.89538 12.2497 9.64818C11.8797 9.40098 11.5912 9.04958 11.4208 8.63843C11.2505 8.22728 11.2059 7.77485 11.2926 7.33835C11.3794 6.90184 11.5937 6.50087 11.9084 6.18615C12.223 5.87143 12.624 5.65709 13.0605 5.57024C13.497 5.48339 13.9494 5.52793 14.3606 5.69822C14.7717 5.86852 15.1232 6.15692 15.3705 6.52696C15.6177 6.897 15.7497 7.33205 15.7497 7.7771C15.7491 8.37363 15.5119 8.94556 15.0901 9.3674C14.6684 9.78925 14.0965 10.0265 13.4999 10.0272ZM13.4999 6.25707C13.1992 6.257 12.9052 6.34612 12.6551 6.51315C12.405 6.68019 12.2101 6.91764 12.095 7.19547C11.9799 7.4733 11.9497 7.77903 12.0084 8.07399C12.067 8.36895 12.2118 8.63989 12.4245 8.85254C12.6371 9.06519 12.9081 9.21 13.203 9.26866C13.498 9.32731 13.8037 9.29717 14.0816 9.18205C14.3594 9.06693 14.5968 8.872 14.7639 8.62192C14.9309 8.37184 15.02 8.07783 15.02 7.7771C15.0195 7.37411 14.8592 6.98777 14.5742 6.70281C14.2893 6.41786 13.9029 6.25756 13.4999 6.25707Z" fill="#223C42"/>
<path d="M13.5001 26.2703C9.38257 26.2703 6.15717 24.7477 6.15717 22.8041C6.15717 21.2771 8.11357 19.9866 11.1412 19.5166C11.189 19.5084 11.2378 19.5097 11.2851 19.5205C11.3323 19.5314 11.3769 19.5515 11.4162 19.5798C11.4556 19.608 11.4889 19.6438 11.5142 19.6851C11.5396 19.7264 11.5565 19.7723 11.5639 19.8201C11.5714 19.868 11.5692 19.9169 11.5576 19.9639C11.5459 20.0109 11.525 20.0551 11.4961 20.094C11.4672 20.1329 11.4308 20.1656 11.3891 20.1902C11.3474 20.2149 11.3012 20.231 11.2532 20.2376C8.68385 20.6371 6.8869 21.6923 6.8869 22.8041C6.8869 24.1256 9.54421 25.5406 13.5001 25.5406C17.4559 25.5406 20.1132 24.1256 20.1132 22.8041C20.1132 21.6923 18.3177 20.6371 15.7469 20.2376C15.6989 20.231 15.6527 20.2149 15.611 20.1902C15.5693 20.1656 15.533 20.1329 15.504 20.094C15.4751 20.0551 15.4542 20.0109 15.4426 19.9639C15.4309 19.9169 15.4288 19.868 15.4362 19.8201C15.4436 19.7723 15.4605 19.7264 15.4859 19.6851C15.5113 19.6438 15.5446 19.608 15.5839 19.5798C15.6233 19.5515 15.6679 19.5314 15.7151 19.5205C15.7623 19.5097 15.8112 19.5084 15.8589 19.5166C18.8873 19.9866 20.843 21.2771 20.843 22.8041C20.843 24.7477 17.6176 26.2703 13.5001 26.2703Z" fill="#223C42"/>
</svg>
