<svg width="18" height="18" viewBox="0 0 18 18" fill="none" xmlns="http://www.w3.org/2000/svg">
<path fill-rule="evenodd" clip-rule="evenodd" d="M5.25 2.25C4.83579 2.25 4.5 2.58579 4.5 3V15C4.5 15.4142 4.83579 15.75 5.25 15.75H12.75C13.1642 15.75 13.5 15.4142 13.5 15V3C13.5 2.58579 13.1642 2.25 12.75 2.25H5.25ZM3 3C3 1.75736 4.00736 0.75 5.25 0.75H12.75C13.9926 0.75 15 1.75736 15 3V15C15 16.2426 13.9926 17.25 12.75 17.25H5.25C4.00736 17.25 3 16.2426 3 15V3Z" fill="#9FA2A3"/>
<path fill-rule="evenodd" clip-rule="evenodd" d="M8.25 13.5C8.25 13.0858 8.58579 12.75 9 12.75H9.0075C9.42171 12.75 9.7575 13.0858 9.7575 13.5C9.7575 13.9142 9.42171 14.25 9.0075 14.25H9C8.58579 14.25 8.25 13.9142 8.25 13.5Z" fill="#9FA2A3"/>
</svg>
