<svg width="61" height="54" viewBox="0 0 61 54" fill="none" xmlns="http://www.w3.org/2000/svg">
<path d="M41.4953 1.37939H18.8618C17.6117 1.38063 16.4131 1.81727 15.5291 2.59352C14.6451 3.36977 14.1479 4.42224 14.1465 5.52002V48.5825C14.1479 49.6803 14.6451 50.7328 15.5291 51.509C16.4131 52.2853 17.6117 52.7219 18.8618 52.7231H41.4953C42.7455 52.7219 43.944 52.2853 44.828 51.509C45.712 50.7328 46.2093 49.6803 46.2107 48.5825V5.52002C46.2093 4.42224 45.712 3.36977 44.828 2.59352C43.944 1.81727 42.7455 1.38063 41.4953 1.37939ZM36.5728 3.03564L36.0069 5.52002H24.3503L23.7845 3.03564H36.5728ZM44.3245 48.5825C44.3237 49.2412 44.0253 49.8727 43.4949 50.3384C42.9646 50.8042 42.2454 51.0662 41.4953 51.0669H18.8618C18.1117 51.0662 17.3926 50.8042 16.8622 50.3384C16.3318 49.8727 16.0335 49.2412 16.0326 48.5825V5.52002C16.0335 4.86135 16.3318 4.22987 16.8622 3.76412C17.3926 3.29837 18.1117 3.03638 18.8618 3.03564H21.8609L22.6523 6.51056C22.6951 6.69829 22.8106 6.86721 22.9792 6.98858C23.1478 7.10995 23.3591 7.17628 23.5771 7.17627H36.78C36.998 7.17628 37.2093 7.10995 37.3779 6.98858C37.5465 6.86721 37.6621 6.69829 37.7048 6.51056L38.4963 3.03564H41.4953C42.2454 3.03638 42.9646 3.29837 43.4949 3.76412C44.0253 4.22987 44.3237 4.86135 44.3245 5.52002V48.5825Z" fill="#AAC9AF"/>
<path d="M24.5194 47.7544H18.861C18.6109 47.7544 18.371 47.8416 18.1942 47.9969C18.0173 48.1522 17.918 48.3629 17.918 48.5825C17.918 48.8022 18.0173 49.0128 18.1942 49.1681C18.371 49.3234 18.6109 49.4106 18.861 49.4106H24.5194C24.7695 49.4106 25.0094 49.3234 25.1863 49.1681C25.3631 49.0128 25.4625 48.8022 25.4625 48.5825C25.4625 48.3629 25.3631 48.1522 25.1863 47.9969C25.0094 47.8416 24.7695 47.7544 24.5194 47.7544Z" fill="#AAC9AF"/>
<path d="M28.2924 47.7544H27.3493C27.0992 47.7544 26.8593 47.8416 26.6825 47.9969C26.5056 48.1522 26.4062 48.3629 26.4062 48.5825C26.4062 48.8022 26.5056 49.0128 26.6825 49.1681C26.8593 49.3234 27.0992 49.4106 27.3493 49.4106H28.2924C28.5425 49.4106 28.7824 49.3234 28.9592 49.1681C29.1361 49.0128 29.2354 48.8022 29.2354 48.5825C29.2354 48.3629 29.1361 48.1522 28.9592 47.9969C28.7824 47.8416 28.5425 47.7544 28.2924 47.7544Z" fill="#AAC9AF"/>
</svg>
