<svg width="50" height="50" viewBox="0 0 50 50" fill="none" xmlns="http://www.w3.org/2000/svg">
<path d="M27.7344 38.3789C27.195 38.3789 26.7578 38.8162 26.7578 39.3555V42.4805C26.7578 45.1729 28.9482 47.3633 31.6406 47.3633H45.1172C47.8096 47.3633 50 45.1729 50 42.4805V30.7629C50 28.0705 47.8096 25.8801 45.1172 25.8801H38.7996C39.0219 18.5846 41.7899 14.792 47.2429 14.2959C47.7459 14.2501 48.131 13.8284 48.131 13.3233V3.61328C48.131 3.34473 48.0204 3.08809 47.8253 2.90361C47.6435 2.73183 47.4033 2.63672 47.1545 2.63672C47.1362 2.63672 47.1179 2.63721 47.0996 2.63828C40.3703 3.0168 35.2333 5.33271 31.8312 9.52178C28.4647 13.6669 26.7578 19.7237 26.7578 27.5242V31.0222C26.7578 31.5614 27.195 31.9987 27.7344 31.9987C28.2737 31.9987 28.7109 31.5614 28.7109 31.0222V27.5242C28.7109 13.2035 34.4272 5.71455 46.1777 4.66319V12.4597C43.2079 12.9216 40.9107 14.304 39.3411 16.577C37.6762 18.9882 36.8319 22.4467 36.8319 26.8566C36.8319 27.3959 37.2691 27.8332 37.8085 27.8332H45.1172C46.7326 27.8332 48.0469 29.1475 48.0469 30.7629V42.4805C48.0469 44.0959 46.7326 45.4102 45.1172 45.4102H31.6406C30.0252 45.4102 28.7109 44.0959 28.7109 42.4805V39.3555C28.7109 38.8162 28.2737 38.3789 27.7344 38.3789Z" fill="#223C42"/>
<path d="M4.88281 47.3633H18.3594C21.0518 47.3633 23.2422 45.1729 23.2422 42.4805V30.7629C23.2422 28.0705 21.0518 25.8801 18.3594 25.8801H12.0418C12.2641 18.5846 15.0321 14.792 20.4851 14.2959C20.988 14.2501 21.3731 13.8284 21.3731 13.3233V3.61328C21.3731 3.34473 21.2626 3.08809 21.0675 2.90361C20.8856 2.73174 20.6455 2.63672 20.3967 2.63672C20.3784 2.63672 20.3601 2.63721 20.3418 2.63828C13.6125 3.0168 8.47549 5.33271 5.07334 9.52178C1.70693 13.6668 0 19.7237 0 27.5242V42.4805C0 45.1729 2.19043 47.3633 4.88281 47.3633ZM1.95312 27.5242C1.95312 13.2035 7.66943 5.71455 19.42 4.66319V12.4597C16.4501 12.9216 14.1529 14.304 12.5834 16.577C10.9185 18.9881 10.0742 22.4466 10.0742 26.8566C10.0742 27.3959 10.5114 27.8332 11.0508 27.8332H18.3594C19.9748 27.8332 21.2891 29.1475 21.2891 30.7629V42.4805C21.2891 44.0959 19.9748 45.4102 18.3594 45.4102H6.64062V38.1803C6.64062 37.641 6.20342 37.2037 5.66406 37.2037C5.12471 37.2037 4.6875 37.641 4.6875 38.1803V45.4029C3.16289 45.302 1.95312 44.0302 1.95312 42.4805V27.5242Z" fill="#223C42"/>
<path d="M5.66406 35.7665C6.20342 35.7665 6.64062 35.3244 6.64062 34.7851C6.64062 34.2459 6.20342 33.8086 5.66406 33.8086C5.1248 33.8086 4.6875 34.2459 4.6875 34.7851V34.7948C4.6875 35.3341 5.12471 35.7665 5.66406 35.7665Z" fill="#223C42"/>
<path d="M27.7344 36.1654C28.2737 36.1654 28.7109 35.7281 28.7109 35.1888V35.1684C28.7109 34.6292 28.2737 34.1919 27.7344 34.1919C27.195 34.1919 26.7578 34.6292 26.7578 35.1684V35.1888C26.7578 35.7281 27.195 36.1654 27.7344 36.1654Z" fill="#223C42"/>
</svg>
