<svg width="18" height="34" viewBox="0 0 18 34" fill="none" xmlns="http://www.w3.org/2000/svg">
<path d="M14.7816 0.618774H2.54855C1.87286 0.619553 1.22507 0.895249 0.74729 1.38538C0.269509 1.87551 0.000758864 2.54004 0 3.23319V30.4231C0.000758864 31.1162 0.269509 31.7807 0.74729 32.2709C1.22507 32.761 1.87286 33.0367 2.54855 33.0375H14.7816C15.4572 33.0367 16.105 32.761 16.5828 32.2709C17.0606 31.7807 17.3293 31.1162 17.3301 30.4231V3.23319C17.3293 2.54004 17.0606 1.87551 16.5828 1.38538C16.105 0.895249 15.4572 0.619553 14.7816 0.618774ZM12.121 1.66454L11.8152 3.23319H5.51499L5.20916 1.66454H12.121ZM16.3107 30.4231C16.3102 30.839 16.149 31.2377 15.8623 31.5317C15.5756 31.8258 15.187 31.9912 14.7816 31.9917H2.54855C2.14314 31.9912 1.75446 31.8258 1.46779 31.5317C1.18112 31.2377 1.01987 30.839 1.01942 30.4231V3.23319C1.01987 2.8173 1.18112 2.41858 1.46779 2.1245C1.75446 1.83042 2.14314 1.66501 2.54855 1.66454H4.16948L4.59726 3.85862C4.62037 3.97715 4.6828 4.08381 4.77393 4.16044C4.86506 4.23708 4.97926 4.27896 5.09709 4.27895H12.233C12.3509 4.27896 12.4651 4.23708 12.5562 4.16044C12.6473 4.08381 12.7097 3.97715 12.7329 3.85862L13.1606 1.66454H14.7816C15.187 1.66501 15.5756 1.83042 15.8623 2.1245C16.149 2.41858 16.3102 2.8173 16.3107 3.23319V30.4231Z" fill="white"/>
<path d="M5.60691 29.8985H2.54865C2.41347 29.8985 2.28382 29.9541 2.18823 30.0531C2.09264 30.1521 2.03894 30.2864 2.03894 30.4265C2.03894 30.5665 2.09264 30.7008 2.18823 30.7998C2.28382 30.8988 2.41347 30.9544 2.54865 30.9544H5.60691C5.7421 30.9544 5.87174 30.8988 5.96733 30.7998C6.06292 30.7008 6.11662 30.5665 6.11662 30.4265C6.11662 30.2864 6.06292 30.1521 5.96733 30.0531C5.87174 29.9541 5.7421 29.8985 5.60691 29.8985Z" fill="white"/>
<path d="M7.64492 29.8985H7.1352C7.00002 29.8985 6.87037 29.9541 6.77478 30.0531C6.67919 30.1521 6.62549 30.2864 6.62549 30.4265C6.62549 30.5665 6.67919 30.7008 6.77478 30.7998C6.87037 30.8988 7.00002 30.9544 7.1352 30.9544H7.64492C7.7801 30.9544 7.90975 30.8988 8.00534 30.7998C8.10093 30.7008 8.15463 30.5665 8.15463 30.4265C8.15463 30.2864 8.10093 30.1521 8.00534 30.0531C7.90975 29.9541 7.7801 29.8985 7.64492 29.8985Z" fill="white"/>
</svg>
