<svg width="34" height="34" viewBox="0 0 34 34" fill="none" xmlns="http://www.w3.org/2000/svg">
<path d="M33.502 24.4382C33.7771 24.4382 34 24.2152 34 23.9401V21.9207C34 19.7063 32.2511 17.8929 30.062 17.7886C31.1056 16.9558 31.7762 15.6744 31.7762 14.2385C31.7762 11.7344 29.739 9.69717 27.2349 9.69717C25.8825 9.69717 24.6671 10.292 23.8344 11.2331C23.8188 11.2045 23.8024 11.1762 23.7853 11.1483V9.46807C23.7853 6.87006 22.3173 4.60893 20.1674 3.46933C20.176 3.37384 20.1813 3.27781 20.1813 3.18139C20.1813 1.42714 18.7542 0 17 0C15.2458 0 13.8187 1.42714 13.8187 3.18132C13.8187 3.27795 13.824 3.37417 13.8326 3.46986C11.6833 4.60959 10.2157 6.87046 10.2157 9.468V11.1483C10.1985 11.1764 10.182 11.205 10.1663 11.2339C9.3336 10.2924 8.1179 9.69717 6.76514 9.69717C4.26102 9.69717 2.22381 11.7344 2.22381 14.2385C2.22381 15.6744 2.89445 16.9558 3.93802 17.7886C1.74894 17.8929 0 19.7063 0 21.9207V26.7996C0 27.0746 0.222992 27.2976 0.498047 27.2976C0.773102 27.2976 0.996094 27.0746 0.996094 26.7996V21.9207C0.996094 20.1887 2.40517 18.7797 4.13711 18.7797H6.76002C6.76175 18.7797 6.76341 18.7798 6.76514 18.7798C6.76686 18.7798 6.76852 18.7797 6.77025 18.7797H9.39316C10.1858 18.7797 10.9329 19.0755 11.5039 19.5948L10.8218 19.7127C8.60074 20.0961 6.98049 22.0109 6.96934 24.2682V33.0039H3.82527V25.069C3.82527 24.9369 3.7728 24.8102 3.67937 24.7168L3.2648 24.3022C3.07029 24.1077 2.75493 24.1077 2.56049 24.3022C2.36599 24.4967 2.36599 24.8121 2.56049 25.0065L2.82917 25.2752V33.0039H0.996094V29.1238C0.996094 28.8487 0.773102 28.6257 0.498047 28.6257C0.222992 28.6257 0 28.8487 0 29.1238V33.502C0 33.777 0.222992 34 0.498047 34H33.502C33.7771 34 34 33.777 34 33.502V26.2643C34 25.9893 33.7771 25.7663 33.502 25.7663C33.2268 25.7663 33.0039 25.9893 33.0039 26.2643V33.0039H31.1708V25.2753L31.4395 25.0066C31.6341 24.8121 31.6341 24.4967 31.4396 24.3022C31.245 24.1078 30.9296 24.1077 30.7353 24.3022L30.3207 24.7168C30.2273 24.8102 30.1748 24.9369 30.1748 25.069V33.0039H27.0313V29.8616C27.0313 29.5865 26.8084 29.3635 26.5333 29.3635C26.2582 29.3635 26.0352 29.5865 26.0352 29.8616V33.0039H23.4048V30.8858C23.4048 30.6108 23.1819 30.3878 22.9068 30.3878C22.6316 30.3878 22.4087 30.6108 22.4087 30.8858V33.0039H11.5925V30.8858C11.5925 30.6108 11.3695 30.3878 11.0944 30.3878C10.8194 30.3878 10.5964 30.6108 10.5964 30.8858V33.0039H7.96543V24.2706C7.9742 22.4995 9.24674 20.9954 10.9914 20.6942L11.5977 20.5895V23.2796C10.1909 23.5174 9.11572 24.7438 9.11572 26.2173V27.7601C9.11572 28.5524 9.75999 29.1969 10.5522 29.1973C10.6196 29.3924 10.8044 29.5327 11.0225 29.5327C11.2976 29.5327 11.5206 29.3097 11.5206 29.0347V28.3638C11.5206 28.0888 11.2976 27.8658 11.0225 27.8658C10.8045 27.8658 10.6197 28.0061 10.5522 28.2011C10.3094 28.2007 10.1119 28.003 10.1119 27.7601V26.2172C10.1119 25.1232 11.0019 24.2332 12.0958 24.2332C13.1898 24.2332 14.0798 25.1232 14.0798 26.2172V27.7601C14.0798 28.003 13.8823 28.2007 13.6394 28.2011C13.572 28.0061 13.3872 27.8658 13.1692 27.8658C12.8941 27.8658 12.6711 28.0888 12.6711 28.3638V29.0347C12.6711 29.3097 12.8941 29.5327 13.1692 29.5327C13.3872 29.5327 13.572 29.3924 13.6395 29.1973C14.4316 29.1969 15.0759 28.5524 15.0759 27.7601V26.2173C15.0759 24.7438 14.0008 23.5174 12.5939 23.2796V20.4173L12.882 20.3675L16.6988 23.2763C16.788 23.3443 16.8943 23.3783 17.0007 23.3783C17.1071 23.3783 17.2135 23.3443 17.3026 23.2763L21.1193 20.3676L21.4063 20.4172V26.4714C20.7834 26.6802 20.3331 27.269 20.3331 27.9613C20.3331 28.8277 21.038 29.5327 21.9044 29.5327C22.7708 29.5327 23.4757 28.8278 23.4757 27.9613C23.4757 27.269 23.0254 26.6802 22.4024 26.4714V20.5893L23.0095 20.6942C24.7541 20.9955 26.0267 22.4996 26.0354 24.2682V27.5373C26.0354 27.8124 26.2583 28.0354 26.5334 28.0354C26.8085 28.0354 27.0315 27.8124 27.0315 27.5373V24.2657C27.0203 22.0109 25.4001 20.0961 23.179 19.7127L22.4964 19.5948C23.0673 19.0755 23.8144 18.7798 24.607 18.7798H27.2299C27.2316 18.7798 27.2333 18.7799 27.235 18.7799C27.2367 18.7799 27.2384 18.7798 27.2401 18.7798H29.8629C31.5948 18.7798 33.0039 20.1888 33.0039 21.9208V23.9402C33.0039 24.2152 33.2268 24.4382 33.502 24.4382ZM21.9042 28.5366C21.5871 28.5366 21.329 28.2786 21.329 27.9613C21.329 27.6441 21.5871 27.3861 21.9042 27.3861C22.2214 27.3861 22.4795 27.6441 22.4795 27.9613C22.4795 28.2786 22.2214 28.5366 21.9042 28.5366ZM27.2349 10.6932C29.1897 10.6932 30.7801 12.2836 30.7801 14.2384C30.7801 16.1916 29.1925 17.7807 27.24 17.7835H27.2297C25.2772 17.7807 23.6896 16.1916 23.6896 14.2384C23.6896 12.2836 25.28 10.6932 27.2349 10.6932ZM22.7968 11.4889C22.987 11.6844 23.0877 11.9427 23.0802 12.2161C23.066 12.7333 22.6355 13.1575 22.1078 13.1878V11.186C22.3696 11.1934 22.6133 11.3003 22.7968 11.4889ZM17 0.996094C18.1583 0.996094 19.1084 1.90201 19.1803 3.04247C18.4959 2.80965 17.7627 2.68328 17.0005 2.68328C16.2379 2.68328 15.5044 2.80985 14.8196 3.04287C14.8913 1.90221 15.8416 0.996094 17 0.996094ZM17.0005 3.67937C20.1924 3.67937 22.7892 6.27612 22.7892 9.468V10.3193C22.5654 10.2343 22.3256 10.1895 22.0785 10.1895H21.9206C21.4745 10.1895 21.1117 10.5524 21.1117 10.9985V11.6447C19.1538 11.3109 17.4079 9.16267 17.3893 9.13949C17.2948 9.02136 17.1518 8.95269 17.0005 8.95256C17.0004 8.95256 17.0003 8.95256 17.0001 8.95256C16.8491 8.95256 16.706 9.02129 16.6115 9.13916C16.5926 9.16267 14.8471 11.3106 12.8893 11.6446V10.9985C12.8893 10.5524 12.5264 10.1895 12.0804 10.1895H11.9225C11.6753 10.1895 11.4356 10.2343 11.2118 10.3193V9.468C11.2119 6.27612 13.8086 3.67937 17.0005 3.67937ZM21.4062 19.3001C21.3811 19.3309 21.3563 19.362 21.332 19.3935L19.8298 19.134L19.8301 18.236H20.5626C21.0278 18.236 21.4062 18.6144 21.4062 19.0795V19.3001ZM19.3091 16.9513C18.6896 17.5613 17.8698 17.8971 17.0005 17.8971C16.1313 17.8971 15.3114 17.5613 14.6919 16.9513L13.9503 16.2211C13.2761 15.5573 12.8894 14.6339 12.8894 13.6877V12.6519C14.7099 12.4149 16.2938 10.9546 17.0003 10.2031C17.707 10.9547 19.291 12.4152 21.1117 12.6519V13.6863C21.1117 13.6868 21.1117 13.6872 21.1117 13.6876C21.1117 14.6338 20.725 15.5573 20.0508 16.2211L19.3091 16.9513ZM12.6681 19.3937C12.6437 19.3621 12.6189 19.3309 12.5938 19.3001V19.0795C12.5938 18.6144 12.9723 18.236 13.4374 18.236H14.1711V19.134L12.6681 19.3937ZM10.921 12.216C10.9135 11.9426 11.0141 11.6844 11.2043 11.4889C11.3878 11.3003 11.6315 11.1934 11.8933 11.1859V13.1877C11.3657 13.1575 10.9352 12.7332 10.921 12.216ZM3.21991 14.2385C3.21991 12.2836 4.81027 10.6933 6.76514 10.6933C8.72 10.6933 10.3104 12.2836 10.3104 14.2385C10.3104 16.1916 8.72273 17.7808 6.77025 17.7836H6.76002C4.80748 17.7808 3.21991 16.1916 3.21991 14.2385ZM11.3065 14.2385C11.3065 14.1846 11.3043 14.1311 11.3024 14.0777C11.498 14.1441 11.7062 14.1815 11.922 14.1849C12.0373 15.2177 12.5071 16.198 13.2515 16.9309L13.5653 17.2399H13.4375C12.6318 17.2399 11.9459 17.7608 11.6975 18.4833C11.0802 18.0689 10.3553 17.8251 9.59212 17.7888C10.6358 16.956 11.3065 15.6745 11.3065 14.2385ZM17.0005 22.2541L14.2215 20.1362L14.7539 20.0442C14.9927 20.0029 15.1672 19.7958 15.1672 19.5534V18.4831C15.7334 18.7513 16.3565 18.8932 17.0005 18.8932C17.6446 18.8932 18.2676 18.7513 18.8339 18.4831L18.8335 19.5533C18.8334 19.7956 19.0079 20.0029 19.2467 20.0442L19.7796 20.1362L17.0005 22.2541ZM22.3025 18.4832C22.0542 17.7607 21.3683 17.2398 20.5626 17.2398H20.4359L20.7497 16.9308C21.4941 16.1979 21.9638 15.2176 22.0792 14.1848C22.2946 14.1814 22.5025 14.1441 22.6977 14.0779C22.6958 14.1313 22.6936 14.1846 22.6936 14.2384C22.6936 15.6744 23.3643 16.9559 24.4081 17.7887C23.6447 17.8251 22.9199 18.0688 22.3025 18.4832Z" fill="white"/>
</svg>
