<svg width="31" height="32" viewBox="0 0 31 32" fill="none" xmlns="http://www.w3.org/2000/svg">
<path d="M30.6686 14.0047L16.2548 0.302253C15.8349 -0.100751 15.1652 -0.100751 14.7453 0.302253L0.332007 14.0041C0.119816 14.2058 0 14.4836 0 14.774C0 15.365 0.4866 15.8441 1.08677 15.8441H3.00219V30.8246C3.00219 31.4156 3.48873 31.8947 4.08896 31.8947H11.6963C12.2966 31.8947 12.7831 31.4156 12.7831 30.8246V22.2643H18.2169V30.8246C18.2169 31.4156 18.7035 31.8947 19.3037 31.8947H26.9111C27.5113 31.8947 27.9978 31.4156 27.9978 30.8246V15.8441H29.9133C30.2079 15.8441 30.4899 15.7263 30.6946 15.5177C31.1118 15.0927 31.1001 14.4153 30.6686 14.0047ZM27.9978 14.774C27.3976 14.774 26.9111 15.2531 26.9111 15.8441V30.8246H19.3037V22.2643C19.3037 21.6733 18.8172 21.1943 18.2169 21.1943H12.7831C12.1829 21.1943 11.6963 21.6733 11.6963 22.2643V30.8246H4.08896V15.8441C4.08896 15.2531 3.60243 14.774 3.00219 14.774H1.08677L15.5 1.07215L29.9187 14.774H27.9978Z" fill="white"/>
</svg>
