<svg width="105" height="81" viewBox="0 0 105 81" fill="none" xmlns="http://www.w3.org/2000/svg">
<path d="M36.0605 70.689C35.2111 70.689 34.5225 71.3776 34.5225 72.227V78.8027C34.5225 79.6521 35.2111 80.3407 36.0605 80.3407C36.91 80.3407 37.5986 79.6521 37.5986 78.8027V72.227C37.5986 71.3776 36.91 70.689 36.0605 70.689Z" fill="#223C42"/>
<path d="M68.9392 70.689C68.0898 70.689 67.4011 71.3776 67.4011 72.227V78.8027C67.4011 79.6521 68.0898 80.3407 68.9392 80.3407C69.7886 80.3407 70.4773 79.6521 70.4773 78.8027V72.227C70.4773 71.3776 69.7886 70.689 68.9392 70.689Z" fill="#223C42"/>
<path d="M23.5969 37.9728C20.0253 36.187 13.3289 36.1665 13.0454 36.1665C12.1962 36.1665 11.5078 36.8547 11.5076 37.7042C11.5074 38.5534 12.1956 39.2423 13.045 39.2427C14.7755 39.2437 19.7968 39.512 22.2212 40.7242C22.4421 40.8347 22.6767 40.8868 22.9078 40.8868C23.472 40.8868 24.0153 40.5751 24.2847 40.0363C24.6647 39.2765 24.3567 38.3526 23.5969 37.9728Z" fill="#223C42"/>
<path d="M8.11377 67.4011C7.26433 67.4011 6.57568 68.0898 6.57568 68.9392V78.8028C6.57568 79.6523 7.26433 80.3409 8.11377 80.3409C8.9632 80.3409 9.65185 79.6523 9.65185 78.8028V68.9392C9.65185 68.09 8.9634 67.4011 8.11377 67.4011Z" fill="#223C42"/>
<path d="M101.423 61.6568L95.1946 58.5429C95.1585 58.5249 95.136 58.4884 95.136 58.4482L95.1364 55.3177C97.6933 53.5571 99.5031 50.7738 99.9559 47.5073C101.106 45.5199 101.712 43.2751 101.712 40.9926C101.712 36.7362 99.6625 32.95 96.4991 30.5674C96.6845 29.95 96.7803 29.313 96.7803 28.6631C96.7803 24.6423 93.1404 21.3711 88.6666 21.3711C84.1928 21.3711 80.5529 24.6423 80.5529 28.6631C80.5529 29.3138 80.6476 29.951 80.833 30.5681C78.9469 31.9888 77.4597 33.91 76.5643 36.131C76.1831 32.3844 75.7861 27.9554 75.4052 22.796C74.9028 15.9887 72.4546 10.2399 68.3255 6.17161C64.2279 2.13404 58.7554 0 52.4999 0C46.2444 0 40.7719 2.13404 36.6747 6.1714C32.5456 10.2399 30.0974 15.9887 29.595 22.7958C29.4615 24.6032 29.3261 26.3162 29.1902 27.9468H14.6895C9.30909 27.9468 4.93171 32.3241 4.93171 37.7046V37.7962C4.93171 39.0493 5.22784 40.3041 5.78832 41.4249L6.57561 42.9997V45.5108C6.57561 49.4906 8.53677 53.0616 11.5073 55.2106V57.432C11.5073 57.7169 11.316 57.9703 11.0422 58.0487L4.69238 59.863C1.92958 60.6521 0 63.2103 0 66.0836V78.8028C0 79.6522 0.688651 80.3408 1.53808 80.3408C2.38752 80.3408 3.07617 79.6522 3.07617 78.8028V66.0836C3.07617 64.5763 4.08843 63.2345 5.53751 62.8204L11.8875 61.0061C12.1166 60.9407 12.3342 60.8519 12.5413 60.7465L16.4392 64.6444V78.8028C16.4392 79.6522 17.1279 80.3408 17.9773 80.3408C18.8268 80.3408 19.5154 79.6522 19.5154 78.8028V64.6444L23.4406 60.7192C23.9652 60.9766 24.4879 61.1263 24.871 61.2358L26.4302 61.6812C24.3173 63.1836 23.0151 65.6341 23.0151 68.2913V78.8023C23.0151 79.6518 23.7037 80.3404 24.5531 80.3404C25.4026 80.3404 26.0912 79.6518 26.0912 78.8023V68.2913C26.0912 66.2975 27.2698 64.4887 29.0938 63.6832L37.8875 59.7992C40.6431 65.3177 46.2742 68.8331 52.5001 68.8331C58.7492 68.8331 64.3614 65.3255 67.1154 59.8005L75.9064 63.6832C77.7304 64.4887 78.909 66.2975 78.909 68.2913V78.8023C78.909 79.6518 79.5976 80.3404 80.4471 80.3404C81.2965 80.3404 81.9852 79.6518 81.9852 78.8023V68.2913C81.9852 66.3238 81.2701 64.4703 80.0427 63.0294L82.423 61.8393L84.2098 63.5374C85.4596 64.7252 87.0629 65.3187 88.6668 65.3187C90.2701 65.3187 91.8742 64.7248 93.1235 63.5374L94.9102 61.8395L100.048 64.4081C101.205 64.9867 101.924 66.1499 101.924 67.4437V78.8026C101.924 79.652 102.612 80.3406 103.462 80.3406C104.311 80.3406 105 79.652 105 78.8026V67.4437C105 64.9774 103.629 62.7599 101.423 61.6568ZM88.6664 24.4471C91.444 24.4471 93.7039 26.3383 93.7039 28.6629C93.7039 28.7603 93.6961 28.8569 93.6883 28.9533C92.1416 28.3056 90.4452 27.9468 88.6664 27.9468C86.8877 27.9468 85.1916 28.3056 83.6453 28.9531C83.6373 28.8567 83.6289 28.7603 83.6289 28.6629C83.6289 26.3383 85.8888 24.4471 88.6664 24.4471ZM17.9775 61.8324L14.4727 58.3276C14.5451 58.0388 14.5839 57.7384 14.5839 57.4318V56.7829C15.5515 57.1006 16.5719 57.2891 17.6279 57.3207C17.7462 57.3243 17.8639 57.326 17.9818 57.326C19.1483 57.326 20.2871 57.1498 21.3707 56.8137V57.4312C21.3707 57.7649 21.405 58.0676 21.4659 58.344L17.9775 61.8324ZM17.7202 54.2455C13.2712 54.1124 9.65178 50.1938 9.65178 45.5108V42.6365C9.65178 42.3978 9.5962 42.1621 9.48936 41.9486L8.53964 40.0492C8.19183 39.3532 8.00788 38.5743 8.00788 37.7962V37.7046C8.00788 34.0203 11.0053 31.0229 14.6895 31.0229H27.947V37.408C27.947 38.4398 27.7031 39.4732 27.2415 40.396L26.4653 41.9484C26.3584 42.1621 26.3029 42.3976 26.3029 42.6363V45.9241C26.3029 48.1951 25.405 50.3173 23.7747 51.8992C22.1451 53.4804 19.9936 54.3144 17.7202 54.2455ZM30.575 59.6661L25.7161 58.278C24.4467 57.9154 24.4469 57.7739 24.4469 57.4316L24.4473 55.3125C24.9639 54.9547 25.4565 54.5542 25.9173 54.1069C26.2274 53.806 26.5161 53.4894 26.7868 53.1613C27.034 53.6625 27.4127 54.1003 27.9023 54.4172C29.1352 55.2155 31.4618 56.5418 34.8833 57.7632L30.575 59.6661ZM52.4999 65.7571C47.4956 65.7571 42.9634 62.9599 40.7032 58.5558L42.942 57.567C44.6893 56.7952 45.8183 55.0625 45.8183 53.1525V49.4619C47.8848 50.2922 50.1399 50.7502 52.4999 50.7502C54.8599 50.7502 57.1148 50.2922 59.1815 49.4619V53.1525C59.1815 55.0625 60.3105 56.7955 62.0578 57.567L64.2962 58.5556C62.0377 62.9646 57.5229 65.7571 52.4999 65.7571ZM65.8369 55.8732L63.3005 54.7529C62.667 54.4732 62.2577 53.8448 62.2577 53.1522V47.8643C67.2005 44.6575 70.4774 39.0907 70.4774 32.7727V29.8886C70.4774 28.0142 69.6805 26.2461 68.2909 25.0377C65.2006 22.35 58.2052 17.6597 46.0773 16.4468C45.2342 16.3623 44.4783 16.9788 44.3938 17.8243C44.3093 18.6697 44.926 19.4233 45.7713 19.5078C57.0516 20.6357 63.4576 24.911 66.2723 27.359C66.9899 27.9829 67.4013 28.9051 67.4013 29.8886V32.7727C67.4013 40.9891 60.7165 47.6738 52.5001 47.6738C44.2837 47.6738 37.599 40.9891 37.599 32.7727V31.486C37.599 30.895 37.9267 30.3536 38.4755 30.0375C40.3985 28.9303 42.9345 26.8791 44.0958 23.3955C44.3645 22.5897 43.9289 21.7185 43.1229 21.4499C42.3174 21.1812 41.446 21.6168 41.1774 22.4228C40.3218 24.9895 38.401 26.5307 36.9404 27.3717C35.4491 28.2304 34.5226 29.807 34.5226 31.4862V32.7729C34.5226 39.0911 37.7993 44.6577 42.7423 47.8645V53.1525C42.7423 53.845 42.333 54.4732 41.6995 54.7531L39.1629 55.8734C34.209 54.548 31.0348 52.7809 29.5741 51.8352C29.5449 51.8164 29.5285 51.7948 29.5367 51.7462C30.0732 48.5749 31.4517 39.4274 32.6629 23.0224C33.1096 16.9696 35.2434 11.9 38.8337 8.36246C42.3436 4.90423 47.0692 3.07617 52.4999 3.07617C57.9306 3.07617 62.6562 4.90423 66.1661 8.36246C69.7564 11.9 71.8902 16.9694 72.3371 23.0222C73.5481 39.4266 74.9266 48.5745 75.4633 51.746C75.4715 51.7948 75.4551 51.8164 75.4257 51.8352C73.9629 52.7821 70.7887 54.5482 65.8369 55.8732ZM82.1966 58.448C82.1966 58.4884 82.1742 58.5247 82.1381 58.5427L77.3192 60.9522C77.262 60.9253 77.2071 60.8952 77.1492 60.8695L70.1169 57.7636C73.5368 56.5426 75.863 55.217 77.0975 54.4176C78.1582 53.7308 78.7074 52.481 78.4964 51.2331C78.4849 51.1648 78.4724 51.09 78.4601 51.0162C79.3251 52.7556 80.6185 54.2312 82.1966 55.3177V58.448ZM91.0039 61.3078C89.6932 62.5538 87.6396 62.5536 86.3285 61.3078L84.8989 59.9493C85.1401 59.4974 85.2726 58.9847 85.2726 58.448V56.8112C86.3467 57.1445 87.4862 57.3258 88.6662 57.3258C89.846 57.3258 90.9856 57.1445 92.0596 56.8112L92.0594 58.4476C92.0594 58.9847 92.1919 59.4974 92.4333 59.9495L91.0039 61.3078ZM88.6664 54.2494C84.4077 54.2494 80.8509 51.0605 80.3929 46.8315C80.3683 46.6049 80.2939 46.3867 80.1745 46.1923C79.2078 44.6179 78.6969 42.8198 78.6969 40.9922C78.6969 35.4953 83.1691 31.0229 88.6664 31.0229C94.1635 31.0229 98.6358 35.4953 98.6358 40.9924C98.6358 42.052 98.463 43.1016 98.1301 44.1036C93.7628 39.6667 86.0799 37.9279 85.7096 37.8463C85.2547 37.746 84.7785 37.8576 84.4151 38.1494C84.0519 38.4414 83.8405 38.8823 83.8405 39.3483C83.8405 39.3583 83.7704 40.4253 82.6471 41.5485C82.0465 42.1492 82.0465 43.1231 82.6471 43.7236C83.2478 44.3243 84.2217 44.3243 84.8222 43.7236C85.6872 42.8586 86.1954 41.9806 86.4936 41.2393C89.0817 42.0081 94.4533 43.9498 96.864 47.358C96.1798 51.3219 92.746 54.2494 88.6664 54.2494Z" fill="#223C42"/>
<path d="M96.8862 69.4333C96.0368 69.4333 95.3481 70.122 95.3481 70.9714V78.8027C95.3481 79.6522 96.0368 80.3408 96.8862 80.3408C97.7357 80.3408 98.4243 79.6522 98.4243 78.8027V70.9714C98.4243 70.122 97.7357 69.4333 96.8862 69.4333Z" fill="#223C42"/>
</svg>
