<svg width="84" height="93" viewBox="0 0 84 93" fill="none" xmlns="http://www.w3.org/2000/svg">
<path d="M23.0172 32.7488H59.1598C59.9263 32.7488 60.5474 32.1388 60.5474 31.3865C60.5474 30.6341 59.9263 30.0242 59.1598 30.0242H23.0172C22.2507 30.0242 21.6296 30.6341 21.6296 31.3865C21.6296 32.1388 22.2509 32.7488 23.0172 32.7488Z" fill="#223C42"/>
<path d="M23.0172 40.7637H35.8948C36.6613 40.7637 37.2823 40.1537 37.2823 39.4014C37.2823 38.649 36.6613 38.0391 35.8948 38.0391H23.0174C22.2509 38.0391 21.6299 38.649 21.6299 39.4014C21.6299 40.1537 22.2509 40.7637 23.0172 40.7637Z" fill="#223C42"/>
<path d="M23.0172 64.8086H43.665C44.4315 64.8086 45.0525 64.1986 45.0525 63.4463C45.0525 62.6939 44.4315 62.084 43.665 62.084H23.0172C22.2507 62.084 21.6296 62.6939 21.6296 63.4463C21.6296 64.1986 22.2509 64.8086 23.0172 64.8086Z" fill="#223C42"/>
<path d="M29.9791 22.3958H52.198C52.9645 22.3958 53.5855 21.7858 53.5855 21.0334C53.5855 20.2811 52.9645 19.6711 52.198 19.6711H29.9791C29.2126 19.6711 28.5916 20.2811 28.5916 21.0334C28.5916 21.7858 29.2128 22.3958 29.9791 22.3958Z" fill="#223C42"/>
<path d="M81.631 61.1582L79.2765 63.47V63.1376C79.2765 61.8855 78.2391 60.8671 76.9639 60.8671H74.2238V58.0916H76.9639C78.2391 58.0916 79.2765 57.0731 79.2765 55.8211V53.584C79.2765 52.8316 78.6554 52.2217 77.8889 52.2217C77.1224 52.2217 76.5014 52.8316 76.5014 53.584V55.367H58.846V38.0328H76.5014V40.6357L68.8821 48.1166L63.8919 43.2172C63.3498 42.6852 62.4714 42.6852 61.9295 43.2172C61.3877 43.7492 61.3877 44.6118 61.9295 45.1437L67.9008 51.0065C68.1718 51.2726 68.5269 51.4056 68.8821 51.4056C69.2371 51.4056 69.5923 51.2726 69.8633 51.0065L76.5016 44.4892V47.2266C76.5016 47.9789 77.1226 48.5889 77.8891 48.5889C78.6556 48.5889 79.2767 47.9789 79.2767 47.2266V41.7644L83.5936 37.526C84.1355 36.994 84.1355 36.1314 83.5936 35.5996C83.0515 35.0675 82.1731 35.0675 81.6312 35.5996L79.2767 37.9113V37.5789C79.2767 36.3269 78.2393 35.3084 76.9641 35.3084H74.2239V9.71578C74.2239 8.66408 73.3526 7.80855 72.2814 7.80855H66.2707V1.90723C66.2707 0.855527 65.3993 0 64.3281 0H1.94257C0.871379 0 0 0.855527 0 1.90723V83.2842C0 84.3359 0.871379 85.1915 1.94257 85.1915H7.95323V91.0928C7.95323 92.1445 8.82461 93 9.8958 93H72.2812C73.3524 93 74.2238 92.1445 74.2238 91.0928V83.6504H76.9639C78.2391 83.6504 79.2765 82.632 79.2765 81.3799V67.3231L83.5934 63.0847C84.1353 62.5527 84.1353 61.6901 83.5934 61.1582C83.0515 60.6264 82.1729 60.6262 81.631 61.1582ZM76.5014 66.1946L68.8819 73.6753L63.8917 68.7759C63.3496 68.2438 62.4712 68.2438 61.9294 68.7759C61.3875 69.3079 61.3875 70.1705 61.9294 70.7023L67.9008 76.5652C68.1718 76.8313 68.5269 76.9642 68.8821 76.9642C69.2371 76.9642 69.5923 76.8313 69.8633 76.5652L76.5016 70.0479V80.926H70.8609C70.0944 80.926 69.4734 81.5359 69.4734 82.2883C69.4734 83.0406 70.0944 83.6506 70.8609 83.6506H71.4489V90.2754H10.7285V10.5332H23.4993C24.2658 10.5332 24.8869 9.92321 24.8869 9.17085C24.8869 8.4185 24.2658 7.80855 23.4993 7.80855H9.89598C8.8248 7.80855 7.95342 8.66408 7.95342 9.71578V82.4667H2.77509V2.72461H63.4954V7.80855H29.9745C29.208 7.80855 28.587 8.4185 28.587 9.17085C28.587 9.92321 29.208 10.5332 29.9745 10.5332H71.4489V35.3082H58.3837C57.1085 35.3082 56.0711 36.3267 56.0711 37.5787V38.039H41.0749C40.3084 38.039 39.6874 38.6489 39.6874 39.4013C39.6874 40.1537 40.3084 40.7636 41.0749 40.7636H56.0711V46.0539H23.0172C22.2507 46.0539 21.6296 46.6638 21.6296 47.4162C21.6296 48.1686 22.2507 48.7785 23.0172 48.7785H56.071V54.0688H23.0172C22.2507 54.0688 21.6296 54.6787 21.6296 55.4311C21.6296 56.1834 22.2507 56.7934 23.0172 56.7934H56.297C56.6689 57.5594 57.4631 58.0914 58.3835 58.0914H71.4487V60.8669H58.3835C57.4957 60.8669 56.7242 61.3613 56.3368 62.0839H48.8452C48.0787 62.0839 47.4576 62.6938 47.4576 63.4462C47.4576 64.1985 48.0787 64.8085 48.8452 64.8085H56.0711V70.0988H23.0172C22.2507 70.0988 21.6296 70.7087 21.6296 71.4611C21.6296 72.2134 22.2507 72.8234 23.0172 72.8234H56.071V78.1138H23.0172C22.2507 78.1138 21.6296 78.7238 21.6296 79.4761C21.6296 80.2285 22.2507 80.8384 23.0172 80.8384H56.071V81.3795C56.071 82.6316 57.1083 83.65 58.3835 83.65H64.3857C65.1522 83.65 65.7732 83.0401 65.7732 82.2877C65.7732 81.5354 65.1522 80.9254 64.3857 80.9254H58.8462V63.5913H76.5016V66.1946H76.5014Z" fill="#223C42"/>
</svg>
